<svg width="14" height="15" viewBox="0 0 14 15" fill="none" xmlns="http://www.w3.org/2000/svg">
<path d="M7 0.714279C5.71442 0.714279 4.45772 1.11365 3.3888 1.86189C2.31988 2.61013 1.48676 3.67363 0.994786 4.91791C0.502816 6.16219 0.374095 7.53136 0.624899 8.85228C0.875703 10.1732 1.49477 11.3865 2.40381 12.3389C3.31285 13.2912 4.47104 13.9397 5.73192 14.2025C6.99279 14.4652 8.29973 14.3304 9.48744 13.815C10.6752 13.2996 11.6903 12.4268 12.4046 11.307C13.1188 10.1872 13.5 8.8706 13.5 7.5238C13.4982 5.71839 12.8128 3.98747 11.5942 2.71085C10.3756 1.43423 8.72335 0.716186 7 0.714279ZM9.85375 6.32297L6.35375 9.98964C6.30732 10.0383 6.25217 10.077 6.19147 10.1033C6.13077 10.1297 6.06571 10.1433 6 10.1433C5.9343 10.1433 5.86923 10.1297 5.80853 10.1033C5.74783 10.077 5.69269 10.0383 5.64625 9.98964L4.14625 8.41821C4.05243 8.31992 3.99972 8.18661 3.99972 8.04761C3.99972 7.90861 4.05243 7.77531 4.14625 7.67702C4.24007 7.57873 4.36732 7.52351 4.5 7.52351C4.63268 7.52351 4.75993 7.57873 4.85375 7.67702L6 8.87851L9.14625 5.58178C9.19271 5.53311 9.24786 5.49451 9.30855 5.46817C9.36925 5.44183 9.43431 5.42827 9.5 5.42827C9.5657 5.42827 9.63075 5.44183 9.69145 5.46817C9.75215 5.49451 9.8073 5.53311 9.85375 5.58178C9.90021 5.63045 9.93706 5.68822 9.9622 5.75181C9.98734 5.8154 10.0003 5.88355 10.0003 5.95237C10.0003 6.0212 9.98734 6.08935 9.9622 6.15294C9.93706 6.21653 9.90021 6.2743 9.85375 6.32297Z" fill="#0F7741"/>
</svg>
