<svg width="94" height="28" viewBox="0 0 94 28" fill="none" xmlns="http://www.w3.org/2000/svg">
<rect x="0.5" y="0.5" width="93" height="27" rx="3.5" fill="#E7FFF2"/>
<rect x="0.5" y="0.5" width="93" height="27" rx="3.5" stroke="#ABEFCD"/>
<path d="M18.916 17.012H14.842L14.142 19H12.476L15.962 9.256H17.81L21.296 19H19.616L18.916 17.012ZM18.468 15.71L16.886 11.188L15.29 15.71H18.468ZM24.4077 12.42C24.6784 12.0653 25.0471 11.7667 25.5137 11.524C25.9804 11.2813 26.5077 11.16 27.0957 11.16C27.7677 11.16 28.3791 11.328 28.9297 11.664C29.4897 11.9907 29.9284 12.4527 30.2457 13.05C30.5631 13.6473 30.7217 14.3333 30.7217 15.108C30.7217 15.8827 30.5631 16.578 30.2457 17.194C29.9284 17.8007 29.4897 18.2767 28.9297 18.622C28.3791 18.958 27.7677 19.126 27.0957 19.126C26.5077 19.126 25.9851 19.0093 25.5277 18.776C25.0704 18.5333 24.6971 18.2347 24.4077 17.88V22.668H22.8117V11.286H24.4077V12.42ZM29.0977 15.108C29.0977 14.576 28.9857 14.1187 28.7617 13.736C28.5471 13.344 28.2577 13.05 27.8937 12.854C27.5391 12.6487 27.1564 12.546 26.7457 12.546C26.3444 12.546 25.9617 12.6487 25.5977 12.854C25.2431 13.0593 24.9537 13.358 24.7297 13.75C24.5151 14.142 24.4077 14.604 24.4077 15.136C24.4077 15.668 24.5151 16.1347 24.7297 16.536C24.9537 16.928 25.2431 17.2267 25.5977 17.432C25.9617 17.6373 26.3444 17.74 26.7457 17.74C27.1564 17.74 27.5391 17.6373 27.8937 17.432C28.2577 17.2173 28.5471 16.9093 28.7617 16.508C28.9857 16.1067 29.0977 15.64 29.0977 15.108ZM33.896 12.42C34.1667 12.0653 34.5353 11.7667 35.002 11.524C35.4687 11.2813 35.996 11.16 36.584 11.16C37.256 11.16 37.8673 11.328 38.418 11.664C38.978 11.9907 39.4167 12.4527 39.734 13.05C40.0513 13.6473 40.21 14.3333 40.21 15.108C40.21 15.8827 40.0513 16.578 39.734 17.194C39.4167 17.8007 38.978 18.2767 38.418 18.622C37.8673 18.958 37.256 19.126 36.584 19.126C35.996 19.126 35.4733 19.0093 35.016 18.776C34.5587 18.5333 34.1853 18.2347 33.896 17.88V22.668H32.3V11.286H33.896V12.42ZM38.586 15.108C38.586 14.576 38.474 14.1187 38.25 13.736C38.0353 13.344 37.746 13.05 37.382 12.854C37.0273 12.6487 36.6447 12.546 36.234 12.546C35.8327 12.546 35.45 12.6487 35.086 12.854C34.7313 13.0593 34.442 13.358 34.218 13.75C34.0033 14.142 33.896 14.604 33.896 15.136C33.896 15.668 34.0033 16.1347 34.218 16.536C34.442 16.928 34.7313 17.2267 35.086 17.432C35.45 17.6373 35.8327 17.74 36.234 17.74C36.6447 17.74 37.0273 17.6373 37.382 17.432C37.746 17.2173 38.0353 16.9093 38.25 16.508C38.474 16.1067 38.586 15.64 38.586 15.108ZM43.3843 12.406C43.6176 12.014 43.9256 11.7107 44.3083 11.496C44.7003 11.272 45.1623 11.16 45.6943 11.16V12.812H45.2883C44.6629 12.812 44.1869 12.9707 43.8603 13.288C43.5429 13.6053 43.3843 14.156 43.3843 14.94V19H41.7883V11.286H43.3843V12.406ZM50.5073 19.126C49.7793 19.126 49.1213 18.9627 48.5333 18.636C47.9453 18.3 47.4833 17.8333 47.1473 17.236C46.8113 16.6293 46.6433 15.9293 46.6433 15.136C46.6433 14.352 46.816 13.6567 47.1613 13.05C47.5067 12.4433 47.978 11.9767 48.5753 11.65C49.1727 11.3233 49.84 11.16 50.5773 11.16C51.3147 11.16 51.982 11.3233 52.5793 11.65C53.1767 11.9767 53.648 12.4433 53.9933 13.05C54.3387 13.6567 54.5113 14.352 54.5113 15.136C54.5113 15.92 54.334 16.6153 53.9793 17.222C53.6247 17.8287 53.1393 18.3 52.5233 18.636C51.9167 18.9627 51.2447 19.126 50.5073 19.126ZM50.5073 17.74C50.918 17.74 51.3007 17.642 51.6553 17.446C52.0193 17.25 52.3133 16.956 52.5373 16.564C52.7613 16.172 52.8733 15.696 52.8733 15.136C52.8733 14.576 52.766 14.1047 52.5513 13.722C52.3367 13.33 52.052 13.036 51.6973 12.84C51.3427 12.644 50.96 12.546 50.5493 12.546C50.1387 12.546 49.756 12.644 49.4013 12.84C49.056 13.036 48.7807 13.33 48.5753 13.722C48.37 14.1047 48.2673 14.576 48.2673 15.136C48.2673 15.9667 48.4773 16.6107 48.8973 17.068C49.3267 17.516 49.8633 17.74 50.5073 17.74ZM59.0711 17.572L61.2551 11.286H62.9491L60.0091 19H58.1051L55.1791 11.286H56.8871L59.0711 17.572ZM71.2255 14.954C71.2255 15.2433 71.2068 15.5047 71.1695 15.738H65.2755C65.3221 16.354 65.5508 16.8487 65.9615 17.222C66.3721 17.5953 66.8761 17.782 67.4735 17.782C68.3321 17.782 68.9388 17.4227 69.2935 16.704H71.0155C70.7821 17.4133 70.3575 17.9967 69.7415 18.454C69.1348 18.902 68.3788 19.126 67.4735 19.126C66.7361 19.126 66.0735 18.9627 65.4855 18.636C64.9068 18.3 64.4495 17.8333 64.1135 17.236C63.7868 16.6293 63.6235 15.9293 63.6235 15.136C63.6235 14.3427 63.7821 13.6473 64.0995 13.05C64.4261 12.4433 64.8788 11.9767 65.4575 11.65C66.0455 11.3233 66.7175 11.16 67.4735 11.16C68.2015 11.16 68.8501 11.3187 69.4195 11.636C69.9888 11.9533 70.4321 12.4013 70.7495 12.98C71.0668 13.5493 71.2255 14.2073 71.2255 14.954ZM69.5595 14.45C69.5501 13.862 69.3401 13.3907 68.9295 13.036C68.5188 12.6813 68.0101 12.504 67.4035 12.504C66.8528 12.504 66.3815 12.6813 65.9895 13.036C65.5975 13.3813 65.3641 13.8527 65.2895 14.45H69.5595ZM72.2641 15.108C72.2641 14.3333 72.4228 13.6473 72.7401 13.05C73.0668 12.4527 73.5054 11.9907 74.0561 11.664C74.6161 11.328 75.2368 11.16 75.9181 11.16C76.4221 11.16 76.9168 11.272 77.4021 11.496C77.8968 11.7107 78.2888 12 78.5781 12.364V8.64H80.1881V19H78.5781V17.838C78.3168 18.2113 77.9528 18.5193 77.4861 18.762C77.0288 19.0047 76.5014 19.126 75.9041 19.126C75.2321 19.126 74.6161 18.958 74.0561 18.622C73.5054 18.2767 73.0668 17.8007 72.7401 17.194C72.4228 16.578 72.2641 15.8827 72.2641 15.108ZM78.5781 15.136C78.5781 14.604 78.4661 14.142 78.2421 13.75C78.0274 13.358 77.7428 13.0593 77.3881 12.854C77.0334 12.6487 76.6508 12.546 76.2401 12.546C75.8294 12.546 75.4468 12.6487 75.0921 12.854C74.7374 13.05 74.4481 13.344 74.2241 13.736C74.0094 14.1187 73.9021 14.576 73.9021 15.108C73.9021 15.64 74.0094 16.1067 74.2241 16.508C74.4481 16.9093 74.7374 17.2173 75.0921 17.432C75.4561 17.6373 75.8388 17.74 76.2401 17.74C76.6508 17.74 77.0334 17.6373 77.3881 17.432C77.7428 17.2267 78.0274 16.928 78.2421 16.536C78.4661 16.1347 78.5781 15.668 78.5781 15.136Z" fill="#0F7741"/>
</svg>
