<svg width="10" height="14" viewBox="0 0 10 14" fill="none" xmlns="http://www.w3.org/2000/svg">
<path d="M7 2.5H1C0.734784 2.5 0.48043 2.60536 0.292893 2.79289C0.105357 2.98043 1.55833e-10 3.23478 1.55832e-10 3.5V13C-2.29313e-06 13.0919 0.0253072 13.182 0.0731499 13.2604C0.120993 13.3388 0.189519 13.4026 0.271207 13.4446C0.352895 13.4866 0.444586 13.5054 0.536215 13.4987C0.627843 13.492 0.715868 13.4603 0.790625 13.4069L4 11.1144L7.21 13.4069C7.28476 13.4601 7.37272 13.4917 7.46425 13.4983C7.55578 13.5048 7.64735 13.4861 7.72894 13.4441C7.81052 13.4021 7.87896 13.3384 7.92678 13.2601C7.97459 13.1817 7.99992 13.0918 8 13V3.5C8 3.23478 7.89464 2.98043 7.70711 2.79289C7.51957 2.60536 7.26522 2.5 7 2.5ZM7 12.0288L4.29 10.0913C4.2052 10.0307 4.10359 9.99811 3.99937 9.99811C3.89516 9.99811 3.79355 10.0307 3.70875 10.0913L1 12.0281V3.5H7V12.0288ZM10 1.5V11C10 11.1326 9.94732 11.2598 9.85355 11.3536C9.75979 11.4473 9.63261 11.5 9.5 11.5C9.36739 11.5 9.24021 11.4473 9.14645 11.3536C9.05268 11.2598 9 11.1326 9 11V1.5H2.5C2.36739 1.5 2.24021 1.44732 2.14645 1.35355C2.05268 1.25979 2 1.13261 2 1C2 0.867392 2.05268 0.740215 2.14645 0.646447C2.24021 0.552678 2.36739 0.5 2.5 0.5H9C9.26522 0.5 9.51957 0.605357 9.70711 0.792893C9.89464 0.98043 10 1.23478 10 1.5Z" fill="#263054"/>
</svg>
