<svg width="20" height="21" viewBox="0 0 20 21" fill="none" xmlns="http://www.w3.org/2000/svg">
<path d="M7.98276 2.8119H3.41216C2.07228 2.8127 0.809854 3.44001 0 4.50745V3.39112C0.00278877 2.48896 0.363851 1.62485 1.00376 0.988891C1.64366 0.352936 2.50999 -0.00276844 3.41216 2.89733e-05H7.98276C8.49293 -0.00277417 8.98316 0.197926 9.34489 0.557682C9.70662 0.917438 9.91001 1.40656 9.91 1.91673C9.91579 2.977 10.777 3.83346 11.8372 3.83344H16.3868C18.2614 3.8276 19.7873 5.33945 19.7989 7.214V8.34086C18.9891 7.27342 17.7267 6.64611 16.3868 6.64531H11.8162C11.5236 6.64603 11.2439 6.52501 11.0442 6.31126C10.8444 6.09752 10.7426 5.8103 10.763 5.51846C10.7547 4.79039 10.4568 4.09561 9.93505 3.58772C9.41332 3.07983 8.71079 2.80065 7.98276 2.8119Z" fill="#263054"/>
<path d="M19.82 17.1345V10.8157C19.8084 8.94117 18.2824 7.42932 16.4078 7.43516H11.8372C10.777 7.43518 9.91579 6.57872 9.91 5.51846C9.91001 5.00828 9.70662 4.51916 9.34489 4.1594C8.98316 3.79965 8.49293 3.59895 7.98276 3.60175H3.41216C1.53758 3.59591 0.0115983 5.10776 0 6.98231V17.1345C0.00278877 18.0367 0.363851 18.9008 1.00376 19.5368C1.64366 20.1727 2.50999 20.5284 3.41216 20.5256H16.4078C17.31 20.5284 18.1763 20.1727 18.8162 19.5368C19.4561 18.9008 19.8172 18.0367 19.82 17.1345Z" fill="#263054"/>
</svg>
