<svg width="342" height="80" viewBox="0 0 342 80" fill="none" xmlns="http://www.w3.org/2000/svg">
<g clip-path="url(#clip0_420_10938)">
<rect width="342" height="80" rx="4" fill="#3270E4"/>
<path d="M55.2832 55.4029L48.1501 34.3021C48.0553 34.0221 47.9063 33.7636 47.7116 33.5413C47.5168 33.3189 47.2802 33.1372 47.0151 33.0063L22.8147 21.034C21.7449 20.5048 20.5088 20.4222 19.3782 20.8044C18.2476 21.1866 17.3151 22.0023 16.7859 23.072L-5.16342 67.4395C-5.69263 68.5093 -5.77522 69.7454 -5.39301 70.876C-5.01081 72.0067 -4.19512 72.9391 -3.1254 73.4683L33.1753 91.4268C34.245 91.9561 35.4812 92.0386 36.6118 91.6564C37.7424 91.2742 38.6749 90.4586 39.2041 89.3888L55.1672 57.1215C55.2985 56.8567 55.3763 56.5686 55.3962 56.2737C55.4161 55.9788 55.3777 55.6829 55.2832 55.4029ZM45.626 40.8885L49.2804 51.6989L42.048 48.121L45.626 40.8885ZM35.1707 87.3934L-1.13001 69.4349L20.8193 25.0674L43.003 36.042L37.0169 48.1423C36.7523 48.6771 36.711 49.2952 36.9021 49.8605C37.0932 50.4258 37.501 50.8921 38.0359 51.1567L50.1361 57.1428L35.1707 87.3934ZM34.1824 62.536C34.2771 62.816 34.3157 63.112 34.296 63.407C34.2763 63.702 34.1986 63.9902 34.0676 64.2552C33.9365 64.5201 33.7545 64.7567 33.5319 64.9514C33.3094 65.146 33.0507 65.2949 32.7707 65.3896C32.4906 65.4843 32.1946 65.5229 31.8997 65.5032C31.6047 65.4834 31.3165 65.4058 31.0515 65.2747C30.7865 65.1436 30.5499 64.9616 30.3553 64.7391C30.1606 64.5166 30.0117 64.2579 29.917 63.9779L28.6012 60.0792L23.0278 71.3451C22.7632 71.8799 22.297 72.2878 21.7317 72.4789C21.1664 72.67 20.5483 72.6287 20.0134 72.3641C19.4786 72.0995 19.0707 71.6332 18.8796 71.0679C18.6885 70.5026 18.7298 69.8845 18.9944 69.3497L24.5678 58.0838L20.6704 59.4034C20.3904 59.4981 20.0944 59.5367 19.7994 59.517C19.5044 59.4973 19.2162 59.4197 18.9512 59.2886C18.6862 59.1575 18.4497 58.9755 18.255 58.753C18.0604 58.5304 17.9115 58.2718 17.8168 57.9917C17.7221 57.7116 17.6835 57.4157 17.7032 57.1207C17.7229 56.8257 17.8006 56.5375 17.9317 56.2725C18.0627 56.0075 18.2447 55.7709 18.4673 55.5763C18.6898 55.3816 18.9485 55.2327 19.2285 55.1381L28.2717 52.081C28.5518 51.9862 28.8478 51.9475 29.1428 51.9671C29.4379 51.9867 29.7261 52.0643 29.9912 52.1954C30.2562 52.3265 30.4928 52.5086 30.6874 52.7312C30.882 52.9538 31.0308 53.2126 31.1254 53.4928L34.1824 62.536Z" fill="#3AB6FF"/>
<circle cx="324.5" cy="70.5" r="24.5" fill="#3AB6FF"/>
<path opacity="0.2" d="M286.017 10.3204L279.279 11.7148C279.139 11.7436 279.007 11.8027 278.892 11.8878C278.777 11.973 278.682 12.0823 278.613 12.208L275.31 18.2435C275.212 18.4209 275.063 18.5642 274.881 18.6541C274.7 18.744 274.496 18.7762 274.295 18.7463C274.095 18.7164 273.909 18.6258 273.762 18.4868C273.615 18.3478 273.514 18.1671 273.473 17.9689L272.078 11.2313C272.049 11.091 271.99 10.9588 271.905 10.8437C271.82 10.7286 271.711 10.6334 271.585 10.5648L265.549 7.26145C265.372 7.16406 265.229 7.01464 265.139 6.8333C265.049 6.65196 265.017 6.44742 265.047 6.24724C265.077 6.04706 265.167 5.86086 265.306 5.71373C265.445 5.5666 265.626 5.4656 265.824 5.42435L272.562 4.02992C272.702 4.0011 272.834 3.94204 272.949 3.85687C273.064 3.7717 273.16 3.66246 273.228 3.53676L276.531 -2.49876C276.629 -2.6762 276.778 -2.81952 276.96 -2.90942C277.141 -2.99932 277.345 -3.03148 277.546 -3.00156C277.746 -2.97164 277.932 -2.88109 278.079 -2.7421C278.226 -2.60311 278.327 -2.42236 278.369 -2.22421L279.763 4.51341C279.792 4.65367 279.851 4.78595 279.936 4.90106C280.021 5.01616 280.13 5.11131 280.256 5.17987L286.292 8.48327C286.469 8.58065 286.612 8.73008 286.702 8.91142C286.792 9.09276 286.824 9.2973 286.794 9.49747C286.765 9.69765 286.674 9.88385 286.535 10.031C286.396 10.1781 286.215 10.2791 286.017 10.3204Z" fill="#3AB6FF"/>
<path d="M286.772 7.60584L280.742 4.30337L279.348 -2.43301C279.265 -2.83169 279.062 -3.19544 278.766 -3.47516C278.47 -3.75489 278.096 -3.93714 277.693 -3.99732C277.291 -4.0575 276.879 -3.99272 276.514 -3.81171C276.15 -3.6307 275.849 -3.34218 275.654 -2.98508L272.349 3.04142L265.613 4.43604C265.214 4.51866 264.85 4.72159 264.571 5.01743C264.291 5.31328 264.109 5.68781 264.048 6.09049C263.988 6.49317 264.053 6.90462 264.234 7.26933C264.415 7.63403 264.704 7.93444 265.061 8.13001L271.084 11.4468L272.479 18.1794C272.562 18.5781 272.765 18.9419 273.061 19.2216C273.356 19.5013 273.731 19.6836 274.134 19.7437C274.536 19.8039 274.948 19.7391 275.313 19.5581C275.677 19.3771 275.978 19.0886 276.173 18.7315L279.476 12.7022L286.212 11.3075C286.611 11.2249 286.974 11.022 287.254 10.7261C287.534 10.4303 287.716 10.0558 287.776 9.65309C287.837 9.25041 287.772 8.83896 287.591 8.47426C287.41 8.10955 287.121 7.80915 286.764 7.61357L286.772 7.60584ZM279.074 10.7451C278.792 10.8032 278.526 10.9221 278.295 11.0933C278.064 11.2645 277.872 11.484 277.734 11.7367L274.435 17.7475L273.042 11.0304C272.984 10.7498 272.865 10.4853 272.695 10.2549C272.524 10.0246 272.306 9.83391 272.055 9.69601L266.044 6.39631L272.757 4.99818C273.037 4.93974 273.302 4.82122 273.532 4.65078C273.763 4.48033 273.953 4.262 274.091 4.01082L277.391 -1.99998L278.789 4.71291C278.847 4.99484 278.966 5.26074 279.137 5.49214C279.308 5.72354 279.528 5.9149 279.781 6.05294L285.791 9.35264L279.074 10.7451ZM281.793 -4.39434C281.832 -4.65664 281.974 -4.89263 282.187 -5.05038C282.401 -5.20814 282.668 -5.27474 282.93 -5.23554L284.908 -4.93992L285.204 -6.91796C285.243 -7.18026 285.385 -7.41625 285.598 -7.574C285.811 -7.73176 286.078 -7.79836 286.34 -7.75916C286.603 -7.71996 286.839 -7.57816 286.997 -7.36497C287.154 -7.15177 287.221 -6.88464 287.182 -6.62234L286.886 -4.6443L288.864 -4.34869C289.126 -4.30948 289.362 -4.16769 289.52 -3.95449C289.678 -3.7413 289.744 -3.47416 289.705 -3.21186C289.666 -2.94956 289.524 -2.71357 289.311 -2.55581C289.098 -2.39806 288.831 -2.33145 288.568 -2.37065L286.59 -2.66627L286.295 -0.68824C286.256 -0.425937 286.114 -0.18995 285.901 -0.0321929C285.687 0.125564 285.42 0.192168 285.158 0.152966C284.896 0.113765 284.66 -0.0280313 284.502 -0.241227C284.344 -0.454423 284.278 -0.721556 284.317 -0.983859L284.612 -2.96189L282.634 -3.25751C282.372 -3.29671 282.136 -3.43851 281.978 -3.6517C281.821 -3.8649 281.754 -4.13203 281.793 -4.39434ZM293.764 3.46128C293.724 3.72359 293.583 3.95957 293.369 4.11733C293.156 4.27509 292.889 4.34169 292.627 4.30249L291.638 4.15468L291.49 5.1437C291.451 5.406 291.309 5.64199 291.096 5.79974C290.882 5.9575 290.615 6.0241 290.353 5.9849C290.091 5.9457 289.855 5.80391 289.697 5.59071C289.539 5.37751 289.473 5.11038 289.512 4.84808L289.66 3.85906L288.671 3.71125C288.408 3.67205 288.172 3.53025 288.015 3.31706C287.857 3.10386 287.79 2.83673 287.829 2.57443C287.869 2.31212 288.01 2.07614 288.224 1.91838C288.437 1.76062 288.704 1.69402 288.966 1.73322L289.955 1.88103L290.103 0.892013C290.142 0.62971 290.284 0.393723 290.497 0.235966C290.71 0.0782091 290.978 0.0116052 291.24 0.0508068C291.502 0.0900083 291.738 0.231804 291.896 0.445C292.054 0.658196 292.12 0.925329 292.081 1.18763L291.933 2.17665L292.922 2.32446C293.185 2.36366 293.421 2.50546 293.578 2.71865C293.736 2.93185 293.803 3.19898 293.764 3.46128Z" fill="#3AB6FF"/>
</g>
<defs>
<clipPath id="clip0_420_10938">
<rect width="342" height="80" rx="4" fill="white"/>
</clipPath>
</defs>
</svg>
