<svg width="342" height="80" viewBox="0 0 342 80" fill="none" xmlns="http://www.w3.org/2000/svg">
<g clip-path="url(#clip0_420_10948)">
<rect width="342" height="80" rx="4" fill="#0D891B"/>
<path d="M58.9957 52.4855L37.6459 41.9245L34.1668 31.6342C33.9797 31.0734 33.683 30.5554 33.2939 30.1103C32.9049 29.6652 32.4312 29.3019 31.9005 29.0415L18.6177 22.471C17.548 21.9418 16.3118 21.8593 15.1812 22.2415C14.0506 22.6238 13.1182 23.4395 12.589 24.5092L-5.44538 60.967C-5.95251 61.9955 -6.03103 63.1832 -5.66374 64.2696C-5.29645 65.3559 -4.51333 66.2523 -3.4861 66.7621L41.263 88.8979C42.2735 89.3961 43.4403 89.4732 44.5076 89.1124C45.5749 88.7515 46.4555 87.9822 46.9564 86.973L61.0339 58.5142C61.5631 57.4444 61.6456 56.2083 61.2634 55.0777C60.8811 53.9471 60.0654 53.0146 58.9957 52.4855ZM29.9053 33.075L31.9435 39.1037L14.6273 30.538L16.6225 26.5045L29.9053 33.075ZM43.0338 84.7534L-1.33457 62.8059L12.632 34.5715L57.0004 56.519L43.0338 84.7534ZM31.8234 51.5954C32.3583 51.86 32.7661 52.3263 32.9573 52.8916C33.1484 53.4569 33.1071 54.0749 32.8425 54.6098L30.8473 58.6433L34.8808 60.6385C35.4157 60.9031 35.8235 61.3693 36.0147 61.9346C36.2058 62.4999 36.1645 63.118 35.8999 63.6529C35.6353 64.1878 35.1691 64.5956 34.6038 64.7868C34.0385 64.9779 33.4204 64.9366 32.8856 64.672L28.8521 62.6768L26.8568 66.7103C26.5923 67.2452 26.126 67.653 25.5607 67.8441C24.9954 68.0353 24.3774 67.994 23.8425 67.7294C23.3076 67.4648 22.8997 66.9986 22.7086 66.4333C22.5175 65.868 22.5588 65.2499 22.8233 64.7151L24.8186 60.6816L20.7851 58.6863C20.2502 58.4218 19.8423 57.9555 19.6512 57.3902C19.4601 56.8249 19.5014 56.2068 19.766 55.672C20.0305 55.1371 20.4968 54.7292 21.0621 54.5381C21.6274 54.347 22.2454 54.3883 22.7803 54.6528L26.8138 56.6481L28.809 52.6146C29.0736 52.0797 29.5398 51.6718 30.1051 51.4807C30.6704 51.2896 31.2885 51.3309 31.8234 51.5954Z" fill="#25DA40"/>
<circle cx="270.5" cy="-4.5" r="24.5" fill="#25DA40"/>
<path opacity="0.2" d="M322.017 76.3204L315.279 77.7148C315.139 77.7436 315.007 77.8027 314.892 77.8878C314.777 77.973 314.682 78.0823 314.613 78.208L311.31 84.2435C311.212 84.4209 311.063 84.5642 310.881 84.6541C310.7 84.744 310.496 84.7762 310.295 84.7463C310.095 84.7164 309.909 84.6258 309.762 84.4868C309.615 84.3478 309.514 84.1671 309.473 83.9689L308.078 77.2313C308.049 77.091 307.99 76.9588 307.905 76.8437C307.82 76.7286 307.711 76.6334 307.585 76.5648L301.549 73.2614C301.372 73.1641 301.229 73.0146 301.139 72.8333C301.049 72.652 301.017 72.4474 301.047 72.2472C301.077 72.0471 301.167 71.8609 301.306 71.7137C301.445 71.5666 301.626 71.4656 301.824 71.4244L308.562 70.0299C308.702 70.0011 308.834 69.942 308.949 69.8569C309.064 69.7717 309.16 69.6625 309.228 69.5368L312.531 63.5012C312.629 63.3238 312.778 63.1805 312.96 63.0906C313.141 63.0007 313.345 62.9685 313.546 62.9984C313.746 63.0284 313.932 63.1189 314.079 63.2579C314.226 63.3969 314.327 63.5776 314.369 63.7758L315.763 70.5134C315.792 70.6537 315.851 70.786 315.936 70.9011C316.021 71.0162 316.13 71.1113 316.256 71.1799L322.292 74.4833C322.469 74.5807 322.612 74.7301 322.702 74.9114C322.792 75.0928 322.824 75.2973 322.794 75.4975C322.765 75.6977 322.674 75.8839 322.535 76.031C322.396 76.1781 322.215 76.2791 322.017 76.3204Z" fill="#25DA40"/>
<path d="M322.772 73.6058L316.742 70.3034L315.348 63.567C315.265 63.1683 315.062 62.8045 314.766 62.5248C314.47 62.2451 314.096 62.0628 313.693 62.0027C313.291 61.9425 312.879 62.0073 312.514 62.1883C312.15 62.3693 311.849 62.6578 311.654 63.0149L308.349 69.0414L301.613 70.436C301.214 70.5186 300.85 70.7216 300.571 71.0174C300.291 71.3133 300.109 71.6878 300.048 72.0905C299.988 72.4932 300.053 72.9046 300.234 73.2693C300.415 73.634 300.704 73.9344 301.061 74.13L307.084 77.4467L308.479 84.1794C308.562 84.5781 308.765 84.9418 309.061 85.2216C309.356 85.5013 309.731 85.6835 310.134 85.7437C310.536 85.8039 310.948 85.7391 311.313 85.5581C311.677 85.3771 311.978 85.0886 312.173 84.7315L315.476 78.7021L322.212 77.3075C322.611 77.2249 322.974 77.022 323.254 76.7261C323.534 76.4303 323.716 76.0558 323.776 75.6531C323.837 75.2504 323.772 74.8389 323.591 74.4742C323.41 74.1095 323.121 73.8091 322.764 73.6136L322.772 73.6058ZM315.074 76.7451C314.792 76.8032 314.526 76.922 314.295 77.0933C314.064 77.2645 313.872 77.484 313.734 77.7366L310.435 83.7474L309.042 77.0303C308.984 76.7498 308.865 76.4853 308.695 76.2549C308.524 76.0246 308.306 75.8339 308.055 75.696L302.044 72.3963L308.757 70.9982C309.037 70.9397 309.302 70.8212 309.532 70.6508C309.763 70.4803 309.953 70.262 310.091 70.0108L313.391 64L314.789 70.7129C314.847 70.9948 314.966 71.2607 315.137 71.4921C315.308 71.7235 315.528 71.9149 315.781 72.0529L321.791 75.3526L315.074 76.7451ZM317.793 61.6056C317.832 61.3433 317.974 61.1074 318.187 60.9496C318.401 60.7918 318.668 60.7252 318.93 60.7644L320.908 61.0601L321.204 59.082C321.243 58.8197 321.385 58.5837 321.598 58.426C321.811 58.2682 322.078 58.2016 322.34 58.2408C322.603 58.28 322.839 58.4218 322.997 58.635C323.154 58.8482 323.221 59.1153 323.182 59.3776L322.886 61.3557L324.864 61.6513C325.126 61.6905 325.362 61.8323 325.52 62.0455C325.678 62.2587 325.744 62.5258 325.705 62.7881C325.666 63.0504 325.524 63.2864 325.311 63.4442C325.098 63.6019 324.831 63.6685 324.568 63.6293L322.59 63.3337L322.295 65.3117C322.256 65.574 322.114 65.81 321.901 65.9678C321.687 66.1255 321.42 66.1922 321.158 66.153C320.896 66.1137 320.66 65.972 320.502 65.7588C320.344 65.5456 320.278 65.2784 320.317 65.0161L320.612 63.0381L318.634 62.7425C318.372 62.7033 318.136 62.5615 317.978 62.3483C317.821 62.1351 317.754 61.868 317.793 61.6056ZM329.764 69.4613C329.724 69.7236 329.583 69.9596 329.369 70.1173C329.156 70.2751 328.889 70.3417 328.627 70.3025L327.638 70.1547L327.49 71.1437C327.451 71.406 327.309 71.642 327.096 71.7997C326.882 71.9575 326.615 72.0241 326.353 71.9849C326.091 71.9457 325.855 71.8039 325.697 71.5907C325.539 71.3775 325.473 71.1104 325.512 70.8481L325.66 69.859L324.671 69.7112C324.408 69.672 324.172 69.5302 324.015 69.317C323.857 69.1038 323.79 68.8367 323.829 68.5744C323.869 68.3121 324.01 68.0761 324.224 67.9184C324.437 67.7606 324.704 67.694 324.966 67.7332L325.955 67.881L326.103 66.892C326.142 66.6297 326.284 66.3937 326.497 66.236C326.71 66.0782 326.978 66.0116 327.24 66.0508C327.502 66.09 327.738 66.2318 327.896 66.445C328.054 66.6582 328.12 66.9253 328.081 67.1876L327.933 68.1766L328.922 68.3244C329.185 68.3636 329.421 68.5054 329.578 68.7186C329.736 68.9318 329.803 69.199 329.764 69.4613Z" fill="#25DA40"/>
</g>
<defs>
<clipPath id="clip0_420_10948">
<rect width="342" height="80" rx="4" fill="white"/>
</clipPath>
</defs>
</svg>
