<svg width="24" height="20" viewBox="0 0 24 20" fill="none" xmlns="http://www.w3.org/2000/svg">
<path d="M1 5.00003H5.125C5.3453 5.86045 5.8457 6.62307 6.54731 7.16767C7.24892 7.71227 8.11183 8.00787 9 8.00787C9.88817 8.00787 10.7511 7.71227 11.4527 7.16767C12.1543 6.62307 12.6547 5.86045 12.875 5.00003H23C23.2652 5.00003 23.5196 4.89467 23.7071 4.70714C23.8946 4.5196 24 4.26525 24 4.00003C24 3.73481 23.8946 3.48046 23.7071 3.29292C23.5196 3.10539 23.2652 3.00003 23 3.00003H12.875C12.6547 2.13962 12.1543 1.37699 11.4527 0.832391C10.7511 0.28779 9.88817 -0.0078125 9 -0.0078125C8.11183 -0.0078125 7.24892 0.28779 6.54731 0.832391C5.8457 1.37699 5.3453 2.13962 5.125 3.00003H1C0.734784 3.00003 0.48043 3.10539 0.292893 3.29292C0.105357 3.48046 0 3.73481 0 4.00003C0 4.26525 0.105357 4.5196 0.292893 4.70714C0.48043 4.89467 0.734784 5.00003 1 5.00003ZM9 2.00003C9.39556 2.00003 9.78224 2.11733 10.1111 2.33709C10.44 2.55685 10.6964 2.86921 10.8478 3.23466C10.9991 3.60012 11.0387 4.00225 10.9616 4.39021C10.8844 4.77817 10.6939 5.13454 10.4142 5.41424C10.1345 5.69395 9.77814 5.88443 9.39018 5.9616C9.00222 6.03877 8.60009 5.99917 8.23463 5.84779C7.86918 5.69641 7.55682 5.44007 7.33706 5.11117C7.1173 4.78227 7 4.39559 7 4.00003C7 3.4696 7.21071 2.96089 7.58579 2.58582C7.96086 2.21075 8.46957 2.00003 9 2.00003ZM23 15H20.875C20.6547 14.1396 20.1543 13.377 19.4527 12.8324C18.7511 12.2878 17.8882 11.9922 17 11.9922C16.1118 11.9922 15.2489 12.2878 14.5473 12.8324C13.8457 13.377 13.3453 14.1396 13.125 15H1C0.734784 15 0.48043 15.1054 0.292893 15.2929C0.105357 15.4805 0 15.7348 0 16C0 16.2652 0.105357 16.5196 0.292893 16.7071C0.48043 16.8947 0.734784 17 1 17H13.125C13.3453 17.8604 13.8457 18.6231 14.5473 19.1677C15.2489 19.7123 16.1118 20.0079 17 20.0079C17.8882 20.0079 18.7511 19.7123 19.4527 19.1677C20.1543 18.6231 20.6547 17.8604 20.875 17H23C23.2652 17 23.5196 16.8947 23.7071 16.7071C23.8946 16.5196 24 16.2652 24 16C24 15.7348 23.8946 15.4805 23.7071 15.2929C23.5196 15.1054 23.2652 15 23 15ZM17 18C16.6044 18 16.2178 17.8827 15.8889 17.663C15.56 17.4432 15.3036 17.1308 15.1522 16.7654C15.0009 16.3999 14.9613 15.9978 15.0384 15.6098C15.1156 15.2219 15.3061 14.8655 15.5858 14.5858C15.8655 14.3061 16.2219 14.1156 16.6098 14.0385C16.9978 13.9613 17.3999 14.0009 17.7654 14.1523C18.1308 14.3036 18.4432 14.56 18.6629 14.8889C18.8827 15.2178 19 15.6045 19 16C19 16.5305 18.7893 17.0392 18.4142 17.4142C18.0391 17.7893 17.5304 18 17 18Z" fill="#263054"/>
</svg>
