<svg width="4" height="14" viewBox="0 0 4 14" fill="none" xmlns="http://www.w3.org/2000/svg">
<path d="M2.00039 3.79961C1.57604 3.79961 1.16908 3.63104 0.86902 3.33098C0.568962 3.03092 0.400391 2.62396 0.400391 2.19961C0.400391 1.77526 0.568962 1.3683 0.86902 1.06824C1.16908 0.76818 1.57604 0.599609 2.00039 0.599609C2.42474 0.599609 2.8317 0.76818 3.13176 1.06824C3.43182 1.3683 3.60039 1.77526 3.60039 2.19961C3.60039 2.62396 3.43182 3.03092 3.13176 3.33098C2.8317 3.63104 2.42474 3.79961 2.00039 3.79961ZM2.00039 8.59961C1.57604 8.59961 1.16908 8.43104 0.86902 8.13098C0.568962 7.83092 0.400391 7.42396 0.400391 6.99961C0.400391 6.57526 0.568962 6.1683 0.86902 5.86824C1.16908 5.56818 1.57604 5.39961 2.00039 5.39961C2.42474 5.39961 2.8317 5.56818 3.13176 5.86824C3.43182 6.1683 3.60039 6.57526 3.60039 6.99961C3.60039 7.42396 3.43182 7.83092 3.13176 8.13098C2.8317 8.43104 2.42474 8.59961 2.00039 8.59961ZM2.00039 13.3996C1.57604 13.3996 1.16908 13.231 0.86902 12.931C0.568962 12.6309 0.400391 12.224 0.400391 11.7996C0.400391 11.3753 0.568962 10.9683 0.86902 10.6682C1.16908 10.3682 1.57604 10.1996 2.00039 10.1996C2.42474 10.1996 2.8317 10.3682 3.13176 10.6682C3.43182 10.9683 3.60039 11.3753 3.60039 11.7996C3.60039 12.224 3.43182 12.6309 3.13176 12.931C2.8317 13.231 2.42474 13.3996 2.00039 13.3996Z" fill="#646675"/>
</svg>
