<svg width="82" height="28" viewBox="0 0 82 28" fill="none" xmlns="http://www.w3.org/2000/svg">
<rect x="0.5" y="0.5" width="81" height="27" rx="3.5" fill="#FFF8F2"/>
<rect x="0.5" y="0.5" width="81" height="27" rx="3.5" stroke="#FFDCBC"/>
<path d="M19.854 12.168C19.854 12.6627 19.7373 13.1293 19.504 13.568C19.2707 14.0067 18.8973 14.366 18.384 14.646C17.8707 14.9167 17.2127 15.052 16.41 15.052H14.646V19H13.05V9.27H16.41C17.1567 9.27 17.7867 9.40067 18.3 9.662C18.8227 9.914 19.21 10.2593 19.462 10.698C19.7233 11.1367 19.854 11.6267 19.854 12.168ZM16.41 13.75C17.0167 13.75 17.4693 13.6147 17.768 13.344C18.0667 13.064 18.216 12.672 18.216 12.168C18.216 11.104 17.614 10.572 16.41 10.572H14.646V13.75H16.41ZM28.4462 14.954C28.4462 15.2433 28.4275 15.5047 28.3902 15.738H22.4962C22.5428 16.354 22.7715 16.8487 23.1822 17.222C23.5928 17.5953 24.0968 17.782 24.6942 17.782C25.5528 17.782 26.1595 17.4227 26.5142 16.704H28.2362C28.0028 17.4133 27.5782 17.9967 26.9622 18.454C26.3555 18.902 25.5995 19.126 24.6942 19.126C23.9568 19.126 23.2942 18.9627 22.7062 18.636C22.1275 18.3 21.6702 17.8333 21.3342 17.236C21.0075 16.6293 20.8442 15.9293 20.8442 15.136C20.8442 14.3427 21.0028 13.6473 21.3202 13.05C21.6468 12.4433 22.0995 11.9767 22.6782 11.65C23.2662 11.3233 23.9382 11.16 24.6942 11.16C25.4222 11.16 26.0708 11.3187 26.6402 11.636C27.2095 11.9533 27.6528 12.4013 27.9702 12.98C28.2875 13.5493 28.4462 14.2073 28.4462 14.954ZM26.7802 14.45C26.7708 13.862 26.5608 13.3907 26.1502 13.036C25.7395 12.6813 25.2308 12.504 24.6242 12.504C24.0735 12.504 23.6022 12.6813 23.2102 13.036C22.8182 13.3813 22.5848 13.8527 22.5102 14.45H26.7802ZM33.9088 11.16C34.5155 11.16 35.0568 11.286 35.5328 11.538C36.0181 11.79 36.3961 12.1633 36.6668 12.658C36.9375 13.1527 37.0728 13.75 37.0728 14.45V19H35.4908V14.688C35.4908 13.9973 35.3181 13.47 34.9728 13.106C34.6275 12.7327 34.1561 12.546 33.5588 12.546C32.9615 12.546 32.4855 12.7327 32.1308 13.106C31.7855 13.47 31.6128 13.9973 31.6128 14.688V19H30.0168V11.286H31.6128V12.168C31.8741 11.8507 32.2055 11.6033 32.6068 11.426C33.0175 11.2487 33.4515 11.16 33.9088 11.16ZM38.5766 15.108C38.5766 14.3333 38.7353 13.6473 39.0526 13.05C39.3793 12.4527 39.8179 11.9907 40.3686 11.664C40.9286 11.328 41.5493 11.16 42.2306 11.16C42.7346 11.16 43.2293 11.272 43.7146 11.496C44.2093 11.7107 44.6013 12 44.8906 12.364V8.64H46.5006V19H44.8906V17.838C44.6293 18.2113 44.2653 18.5193 43.7986 18.762C43.3413 19.0047 42.8139 19.126 42.2166 19.126C41.5446 19.126 40.9286 18.958 40.3686 18.622C39.8179 18.2767 39.3793 17.8007 39.0526 17.194C38.7353 16.578 38.5766 15.8827 38.5766 15.108ZM44.8906 15.136C44.8906 14.604 44.7786 14.142 44.5546 13.75C44.3399 13.358 44.0553 13.0593 43.7006 12.854C43.3459 12.6487 42.9633 12.546 42.5526 12.546C42.1419 12.546 41.7593 12.6487 41.4046 12.854C41.0499 13.05 40.7606 13.344 40.5366 13.736C40.3219 14.1187 40.2146 14.576 40.2146 15.108C40.2146 15.64 40.3219 16.1067 40.5366 16.508C40.7606 16.9093 41.0499 17.2173 41.4046 17.432C41.7686 17.6373 42.1513 17.74 42.5526 17.74C42.9633 17.74 43.3459 17.6373 43.7006 17.432C44.0553 17.2267 44.3399 16.928 44.5546 16.536C44.7786 16.1347 44.8906 15.668 44.8906 15.136ZM49.4089 10.264C49.1195 10.264 48.8769 10.166 48.6809 9.97C48.4849 9.774 48.3869 9.53133 48.3869 9.242C48.3869 8.95267 48.4849 8.71 48.6809 8.514C48.8769 8.318 49.1195 8.22 49.4089 8.22C49.6889 8.22 49.9269 8.318 50.1229 8.514C50.3189 8.71 50.4169 8.95267 50.4169 9.242C50.4169 9.53133 50.3189 9.774 50.1229 9.97C49.9269 10.166 49.6889 10.264 49.4089 10.264ZM50.1929 11.286V19H48.5969V11.286H50.1929ZM56.1803 11.16C56.7869 11.16 57.3283 11.286 57.8043 11.538C58.2896 11.79 58.6676 12.1633 58.9383 12.658C59.2089 13.1527 59.3443 13.75 59.3443 14.45V19H57.7623V14.688C57.7623 13.9973 57.5896 13.47 57.2443 13.106C56.8989 12.7327 56.4276 12.546 55.8303 12.546C55.2329 12.546 54.7569 12.7327 54.4023 13.106C54.0569 13.47 53.8843 13.9973 53.8843 14.688V19H52.2883V11.286H53.8843V12.168C54.1456 11.8507 54.4769 11.6033 54.8783 11.426C55.2889 11.2487 55.7229 11.16 56.1803 11.16ZM64.4881 11.16C65.0854 11.16 65.6127 11.2813 66.0701 11.524C66.5367 11.7573 66.9007 12.0513 67.1621 12.406V11.286H68.7721V19.126C68.7721 19.8353 68.6227 20.4653 68.3241 21.016C68.0254 21.576 67.5914 22.0147 67.0221 22.332C66.4621 22.6493 65.7901 22.808 65.0061 22.808C63.9607 22.808 63.0927 22.5607 62.4021 22.066C61.7114 21.5807 61.3194 20.918 61.2261 20.078H62.8081C62.9294 20.4793 63.1861 20.8013 63.5781 21.044C63.9794 21.296 64.4554 21.422 65.0061 21.422C65.6501 21.422 66.1681 21.226 66.5601 20.834C66.9614 20.442 67.1621 19.8727 67.1621 19.126V17.838C66.8914 18.202 66.5227 18.51 66.0561 18.762C65.5987 19.0047 65.0761 19.126 64.4881 19.126C63.8161 19.126 63.2001 18.958 62.6401 18.622C62.0894 18.2767 61.6507 17.8007 61.3241 17.194C61.0067 16.578 60.8481 15.8827 60.8481 15.108C60.8481 14.3333 61.0067 13.6473 61.3241 13.05C61.6507 12.4527 62.0894 11.9907 62.6401 11.664C63.2001 11.328 63.8161 11.16 64.4881 11.16ZM67.1621 15.136C67.1621 14.604 67.0501 14.142 66.8261 13.75C66.6114 13.358 66.3267 13.0593 65.9721 12.854C65.6174 12.6487 65.2347 12.546 64.8241 12.546C64.4134 12.546 64.0307 12.6487 63.6761 12.854C63.3214 13.05 63.0321 13.344 62.8081 13.736C62.5934 14.1187 62.4861 14.576 62.4861 15.108C62.4861 15.64 62.5934 16.1067 62.8081 16.508C63.0321 16.9093 63.3214 17.2173 63.6761 17.432C64.0401 17.6373 64.4227 17.74 64.8241 17.74C65.2347 17.74 65.6174 17.6373 65.9721 17.432C66.3267 17.2267 66.6114 16.928 66.8261 16.536C67.0501 16.1347 67.1621 15.668 67.1621 15.136Z" fill="#C56A00"/>
</svg>
