<svg width="14" height="15" viewBox="0 0 14 15" fill="none" xmlns="http://www.w3.org/2000/svg">
<path d="M7 0.571426C5.71442 0.571426 4.45772 0.970798 3.3888 1.71904C2.31988 2.46728 1.48676 3.53078 0.994786 4.77506C0.502816 6.01934 0.374095 7.3885 0.624899 8.70942C0.875703 10.0303 1.49477 11.2437 2.40381 12.196C3.31285 13.1483 4.47104 13.7969 5.73192 14.0596C6.99279 14.3224 8.29973 14.1875 9.48744 13.6721C10.6752 13.1567 11.6903 12.2839 12.4046 11.1641C13.1188 10.0443 13.5 8.72775 13.5 7.38095C13.4982 5.57554 12.8128 3.84462 11.5942 2.568C10.3756 1.29138 8.72335 0.573333 7 0.571426ZM7 13.1429C5.91221 13.1429 4.84884 12.8049 3.94437 12.1718C3.0399 11.5387 2.33495 10.6388 1.91867 9.58594C1.50238 8.53309 1.39347 7.37456 1.60568 6.25686C1.8179 5.13916 2.34173 4.11249 3.11092 3.30667C3.8801 2.50085 4.86011 1.95208 5.92701 1.72976C6.9939 1.50743 8.09977 1.62154 9.10476 2.05764C10.1098 2.49375 10.9687 3.23227 11.5731 4.17981C12.1774 5.12735 12.5 6.24135 12.5 7.38095C12.4983 8.90857 11.9184 10.3731 10.8873 11.4533C9.85617 12.5335 8.45819 13.1411 7 13.1429ZM11 7.38095C11 7.51987 10.9473 7.65311 10.8536 7.75134C10.7598 7.84957 10.6326 7.90476 10.5 7.90476H7C6.86739 7.90476 6.74022 7.84957 6.64645 7.75134C6.55268 7.65311 6.5 7.51987 6.5 7.38095V3.71428C6.5 3.57536 6.55268 3.44213 6.64645 3.34389C6.74022 3.24566 6.86739 3.19047 7 3.19047C7.13261 3.19047 7.25979 3.24566 7.35356 3.34389C7.44732 3.44213 7.5 3.57536 7.5 3.71428V6.85714H10.5C10.6326 6.85714 10.7598 6.91233 10.8536 7.01056C10.9473 7.10879 11 7.24203 11 7.38095Z" fill="#C56A00"/>
</svg>
