<svg width="17" height="17" viewBox="0 0 17 17" fill="none" xmlns="http://www.w3.org/2000/svg">
<path d="M16.3851 7.12501L12.2078 11.3164C12.564 12.3063 12.7117 13.9641 11.1773 16.0039C11.07 16.1473 10.933 16.2659 10.7756 16.3515C10.6183 16.4372 10.4443 16.4878 10.2656 16.5C10.2359 16.5 10.207 16.5 10.1773 16.5C10.0131 16.5 9.8504 16.4677 9.69866 16.4048C9.54691 16.3419 9.40904 16.2498 9.29293 16.1336L5.52262 12.3594L2.19215 15.6922C2.07488 15.8095 1.91582 15.8754 1.74997 15.8754C1.58411 15.8754 1.42505 15.8095 1.30778 15.6922C1.1905 15.5749 1.12462 15.4159 1.12462 15.25C1.12462 15.0842 1.1905 14.9251 1.30778 14.8078L4.64059 11.4774L0.867153 7.70391C0.743121 7.57973 0.646632 7.43081 0.583969 7.26686C0.521305 7.10291 0.49387 6.9276 0.503451 6.75235C0.513032 6.57709 0.559413 6.40582 0.639575 6.24968C0.719738 6.09354 0.831885 5.95603 0.968715 5.8461C2.95465 4.24376 4.85543 4.5586 5.68747 4.81954L9.87496 0.617194C9.99104 0.501091 10.1289 0.408991 10.2805 0.346154C10.4322 0.283318 10.5948 0.250977 10.759 0.250977C10.9231 0.250977 11.0857 0.283318 11.2374 0.346154C11.389 0.408991 11.5269 0.501091 11.6429 0.617194L16.3843 5.35782C16.6187 5.59211 16.7504 5.90987 16.7506 6.24125C16.7507 6.57263 16.6193 6.89051 16.3851 7.12501Z" fill="white"/>
</svg>
