<svg width="86" height="28" viewBox="0 0 86 28" fill="none" xmlns="http://www.w3.org/2000/svg">
<rect x="0.5" y="0.5" width="85" height="27" rx="3.5" fill="#FFF9F9"/>
<rect x="0.5" y="0.5" width="85" height="27" rx="3.5" stroke="#F9CBCB"/>
<path d="M18.104 19L15.864 15.108H14.646V19H13.05V9.27H16.41C17.1567 9.27 17.7867 9.40067 18.3 9.662C18.8227 9.92333 19.21 10.2733 19.462 10.712C19.7233 11.1507 19.854 11.6407 19.854 12.182C19.854 12.8167 19.6673 13.3953 19.294 13.918C18.93 14.4313 18.3653 14.7813 17.6 14.968L20.008 19H18.104ZM14.646 13.834H16.41C17.0073 13.834 17.4553 13.6847 17.754 13.386C18.062 13.0873 18.216 12.686 18.216 12.182C18.216 11.678 18.0667 11.286 17.768 11.006C17.4693 10.7167 17.0167 10.572 16.41 10.572H14.646V13.834ZM28.9657 14.954C28.9657 15.2433 28.947 15.5047 28.9097 15.738H23.0157C23.0624 16.354 23.291 16.8487 23.7017 17.222C24.1124 17.5953 24.6164 17.782 25.2137 17.782C26.0724 17.782 26.679 17.4227 27.0337 16.704H28.7557C28.5224 17.4133 28.0977 17.9967 27.4817 18.454C26.875 18.902 26.119 19.126 25.2137 19.126C24.4764 19.126 23.8137 18.9627 23.2257 18.636C22.647 18.3 22.1897 17.8333 21.8537 17.236C21.527 16.6293 21.3637 15.9293 21.3637 15.136C21.3637 14.3427 21.5224 13.6473 21.8397 13.05C22.1664 12.4433 22.619 11.9767 23.1977 11.65C23.7857 11.3233 24.4577 11.16 25.2137 11.16C25.9417 11.16 26.5904 11.3187 27.1597 11.636C27.729 11.9533 28.1724 12.4013 28.4897 12.98C28.807 13.5493 28.9657 14.2073 28.9657 14.954ZM27.2997 14.45C27.2904 13.862 27.0804 13.3907 26.6697 13.036C26.259 12.6813 25.7504 12.504 25.1437 12.504C24.593 12.504 24.1217 12.6813 23.7297 13.036C23.3377 13.3813 23.1044 13.8527 23.0297 14.45H27.2997ZM31.3483 10.264C31.059 10.264 30.8163 10.166 30.6203 9.97C30.4243 9.774 30.3263 9.53133 30.3263 9.242C30.3263 8.95267 30.4243 8.71 30.6203 8.514C30.8163 8.318 31.059 8.22 31.3483 8.22C31.6283 8.22 31.8663 8.318 32.0623 8.514C32.2583 8.71 32.3563 8.95267 32.3563 9.242C32.3563 9.53133 32.2583 9.774 32.0623 9.97C31.8663 10.166 31.6283 10.264 31.3483 10.264ZM32.1323 20.512C32.1323 21.268 31.941 21.814 31.5583 22.15C31.185 22.4953 30.639 22.668 29.9203 22.668H29.0943V21.324H29.6403C29.967 21.324 30.1957 21.2587 30.3263 21.128C30.4663 21.0067 30.5363 20.8013 30.5363 20.512V11.286H32.1323V20.512ZM41.2977 14.954C41.2977 15.2433 41.2791 15.5047 41.2417 15.738H35.3477C35.3944 16.354 35.6231 16.8487 36.0337 17.222C36.4444 17.5953 36.9484 17.782 37.5457 17.782C38.4044 17.782 39.0111 17.4227 39.3657 16.704H41.0877C40.8544 17.4133 40.4297 17.9967 39.8137 18.454C39.2071 18.902 38.4511 19.126 37.5457 19.126C36.8084 19.126 36.1457 18.9627 35.5577 18.636C34.9791 18.3 34.5217 17.8333 34.1857 17.236C33.8591 16.6293 33.6957 15.9293 33.6957 15.136C33.6957 14.3427 33.8544 13.6473 34.1717 13.05C34.4984 12.4433 34.9511 11.9767 35.5297 11.65C36.1177 11.3233 36.7897 11.16 37.5457 11.16C38.2737 11.16 38.9224 11.3187 39.4917 11.636C40.0611 11.9533 40.5044 12.4013 40.8217 12.98C41.1391 13.5493 41.2977 14.2073 41.2977 14.954ZM39.6317 14.45C39.6224 13.862 39.4124 13.3907 39.0017 13.036C38.5911 12.6813 38.0824 12.504 37.4757 12.504C36.9251 12.504 36.4537 12.6813 36.0617 13.036C35.6697 13.3813 35.4364 13.8527 35.3617 14.45H39.6317ZM42.3364 15.136C42.3364 14.3427 42.495 13.6473 42.8124 13.05C43.139 12.4433 43.587 11.9767 44.1564 11.65C44.7257 11.3233 45.379 11.16 46.1164 11.16C47.0497 11.16 47.8197 11.384 48.4264 11.832C49.0424 12.2707 49.4577 12.9007 49.6724 13.722H47.9504C47.8104 13.3393 47.5864 13.0407 47.2784 12.826C46.9704 12.6113 46.583 12.504 46.1164 12.504C45.463 12.504 44.9404 12.7373 44.5484 13.204C44.1657 13.6613 43.9744 14.3053 43.9744 15.136C43.9744 15.9667 44.1657 16.6153 44.5484 17.082C44.9404 17.5487 45.463 17.782 46.1164 17.782C47.0404 17.782 47.6517 17.376 47.9504 16.564H49.6724C49.4484 17.348 49.0284 17.9733 48.4124 18.44C47.7964 18.8973 47.031 19.126 46.1164 19.126C45.379 19.126 44.7257 18.9627 44.1564 18.636C43.587 18.3 43.139 17.8333 42.8124 17.236C42.495 16.6293 42.3364 15.9293 42.3364 15.136ZM53.1249 12.588V16.858C53.1249 17.1473 53.1902 17.3573 53.3209 17.488C53.4609 17.6093 53.6942 17.67 54.0209 17.67H55.0009V19H53.7409C53.0222 19 52.4716 18.832 52.0889 18.496C51.7062 18.16 51.5149 17.614 51.5149 16.858V12.588H50.6049V11.286H51.5149V9.368H53.1249V11.286H55.0009V12.588H53.1249ZM63.5419 14.954C63.5419 15.2433 63.5232 15.5047 63.4859 15.738H57.5919C57.6385 16.354 57.8672 16.8487 58.2779 17.222C58.6885 17.5953 59.1925 17.782 59.7899 17.782C60.6485 17.782 61.2552 17.4227 61.6099 16.704H63.3319C63.0985 17.4133 62.6739 17.9967 62.0579 18.454C61.4512 18.902 60.6952 19.126 59.7899 19.126C59.0525 19.126 58.3899 18.9627 57.8019 18.636C57.2232 18.3 56.7659 17.8333 56.4299 17.236C56.1032 16.6293 55.9399 15.9293 55.9399 15.136C55.9399 14.3427 56.0985 13.6473 56.4159 13.05C56.7425 12.4433 57.1952 11.9767 57.7739 11.65C58.3619 11.3233 59.0339 11.16 59.7899 11.16C60.5179 11.16 61.1665 11.3187 61.7359 11.636C62.3052 11.9533 62.7485 12.4013 63.0659 12.98C63.3832 13.5493 63.5419 14.2073 63.5419 14.954ZM61.8759 14.45C61.8665 13.862 61.6565 13.3907 61.2459 13.036C60.8352 12.6813 60.3265 12.504 59.7199 12.504C59.1692 12.504 58.6979 12.6813 58.3059 13.036C57.9139 13.3813 57.6805 13.8527 57.6059 14.45H61.8759ZM64.5805 15.108C64.5805 14.3333 64.7392 13.6473 65.0565 13.05C65.3832 12.4527 65.8218 11.9907 66.3725 11.664C66.9325 11.328 67.5532 11.16 68.2345 11.16C68.7385 11.16 69.2332 11.272 69.7185 11.496C70.2132 11.7107 70.6052 12 70.8945 12.364V8.64H72.5045V19H70.8945V17.838C70.6332 18.2113 70.2692 18.5193 69.8025 18.762C69.3452 19.0047 68.8178 19.126 68.2205 19.126C67.5485 19.126 66.9325 18.958 66.3725 18.622C65.8218 18.2767 65.3832 17.8007 65.0565 17.194C64.7392 16.578 64.5805 15.8827 64.5805 15.108ZM70.8945 15.136C70.8945 14.604 70.7825 14.142 70.5585 13.75C70.3438 13.358 70.0592 13.0593 69.7045 12.854C69.3498 12.6487 68.9672 12.546 68.5565 12.546C68.1458 12.546 67.7632 12.6487 67.4085 12.854C67.0538 13.05 66.7645 13.344 66.5405 13.736C66.3258 14.1187 66.2185 14.576 66.2185 15.108C66.2185 15.64 66.3258 16.1067 66.5405 16.508C66.7645 16.9093 67.0538 17.2173 67.4085 17.432C67.7725 17.6373 68.1552 17.74 68.5565 17.74C68.9672 17.74 69.3498 17.6373 69.7045 17.432C70.0592 17.2267 70.3438 16.928 70.5585 16.536C70.7825 16.1347 70.8945 15.668 70.8945 15.136Z" fill="#DE0D0D"/>
</svg>
