<svg width="14" height="15" viewBox="0 0 14 15" fill="none" xmlns="http://www.w3.org/2000/svg">
<path d="M7 0.57143C5.71442 0.57143 4.45772 0.970802 3.3888 1.71904C2.31988 2.46728 1.48676 3.53078 0.994786 4.77506C0.502816 6.01934 0.374095 7.38851 0.624899 8.70943C0.875703 10.0303 1.49477 11.2437 2.40381 12.196C3.31285 13.1483 4.47104 13.7969 5.73192 14.0596C6.99279 14.3224 8.29973 14.1875 9.48744 13.6721C10.6752 13.1567 11.6903 12.2839 12.4046 11.1641C13.1188 10.0443 13.5 8.72775 13.5 7.38095C13.4982 5.57554 12.8128 3.84462 11.5942 2.568C10.3756 1.29138 8.72335 0.573337 7 0.57143ZM9.35375 9.1056C9.40021 9.15426 9.43706 9.21204 9.4622 9.27563C9.48734 9.33921 9.50028 9.40737 9.50028 9.47619C9.50028 9.54502 9.48734 9.61317 9.4622 9.67676C9.43706 9.74034 9.40021 9.79812 9.35375 9.84679C9.3073 9.89546 9.25215 9.93406 9.19145 9.9604C9.13075 9.98674 9.0657 10.0003 9 10.0003C8.93431 10.0003 8.86925 9.98674 8.80855 9.9604C8.74786 9.93406 8.69271 9.89546 8.64625 9.84679L7 8.12149L5.35375 9.84679C5.3073 9.89546 5.25215 9.93406 5.19145 9.9604C5.13075 9.98674 5.0657 10.0003 5 10.0003C4.93431 10.0003 4.86925 9.98674 4.80855 9.9604C4.74786 9.93406 4.69271 9.89546 4.64625 9.84679C4.5998 9.79812 4.56295 9.74034 4.53781 9.67676C4.51266 9.61317 4.49972 9.54502 4.49972 9.47619C4.49972 9.40737 4.51266 9.33921 4.53781 9.27563C4.56295 9.21204 4.5998 9.15426 4.64625 9.1056L6.29313 7.38095L4.64625 5.65631C4.55243 5.55802 4.49972 5.42472 4.49972 5.28572C4.49972 5.14672 4.55243 5.01341 4.64625 4.91512C4.74007 4.81683 4.86732 4.76162 5 4.76162C5.13268 4.76162 5.25993 4.81683 5.35375 4.91512L7 6.64042L8.64625 4.91512C8.69271 4.86645 8.74786 4.82785 8.80855 4.80151C8.86925 4.77517 8.93431 4.76162 9 4.76162C9.0657 4.76162 9.13075 4.77517 9.19145 4.80151C9.25215 4.82785 9.3073 4.86645 9.35375 4.91512C9.40021 4.96379 9.43706 5.02156 9.4622 5.08515C9.48734 5.14874 9.50028 5.21689 9.50028 5.28572C9.50028 5.35454 9.48734 5.42269 9.4622 5.48628C9.43706 5.54987 9.40021 5.60764 9.35375 5.65631L7.70688 7.38095L9.35375 9.1056Z" fill="#DE0D0D"/>
</svg>
