<svg width="169" height="14" viewBox="0 0 169 14" fill="none" xmlns="http://www.w3.org/2000/svg">
<path d="M0.352273 0.818182H1.42614L5.12003 9.6875H5.20952L8.90341 0.818182H9.97727V11H9.10227V2.78196H9.02273L5.58736 11H4.74219L1.30682 2.78196H1.22727V11H0.352273V0.818182ZM14.6332 11.174C14.1725 11.174 13.7515 11.0845 13.3704 10.9055C12.9892 10.7232 12.686 10.4614 12.4606 10.12C12.2352 9.77533 12.1225 9.35772 12.1225 8.86719C12.1225 8.48935 12.1938 8.17116 12.3363 7.91264C12.4788 7.65412 12.681 7.442 12.9428 7.27628C13.2047 7.11056 13.5146 6.97964 13.8725 6.88352C14.2305 6.78741 14.6249 6.71283 15.0558 6.6598C15.4833 6.60677 15.8446 6.56037 16.1396 6.5206C16.4379 6.48082 16.6649 6.41785 16.8207 6.33168C16.9764 6.2455 17.0543 6.1063 17.0543 5.91406V5.73509C17.0543 5.21473 16.8986 4.8054 16.587 4.5071C16.2788 4.20549 15.8346 4.05469 15.2546 4.05469C14.7044 4.05469 14.2553 4.17566 13.9073 4.41761C13.5626 4.65956 13.3207 4.9446 13.1815 5.27273L12.3413 4.96946C12.5136 4.55185 12.7522 4.21875 13.0572 3.97017C13.3621 3.71828 13.7035 3.53764 14.0813 3.42827C14.4592 3.31558 14.842 3.25923 15.2298 3.25923C15.5214 3.25923 15.8247 3.29735 16.1396 3.37358C16.4577 3.44981 16.7527 3.58239 17.0245 3.77131C17.2963 3.95691 17.5167 4.21709 17.6857 4.55185C17.8548 4.88329 17.9393 5.30421 17.9393 5.81463V11H17.0543V9.7919H16.9996C16.8936 10.0173 16.7362 10.236 16.5273 10.4482C16.3185 10.6603 16.0567 10.8343 15.7418 10.9702C15.427 11.1061 15.0574 11.174 14.6332 11.174ZM14.7525 10.3636C15.2231 10.3636 15.6308 10.2592 15.9755 10.0504C16.3202 9.84162 16.5853 9.56487 16.771 9.22017C16.9599 8.87216 17.0543 8.48935 17.0543 8.07173V6.96804C16.988 7.03101 16.877 7.08736 16.7212 7.13707C16.5688 7.18679 16.3915 7.23153 16.1893 7.27131C15.9904 7.30776 15.7915 7.33925 15.5927 7.36577C15.3938 7.39228 15.2148 7.41548 15.0558 7.43537C14.6249 7.4884 14.257 7.57126 13.9521 7.68395C13.6471 7.79664 13.4135 7.95241 13.2511 8.15128C13.0887 8.34683 13.0075 8.59872 13.0075 8.90696C13.0075 9.37098 13.1732 9.73059 13.5046 9.9858C13.8361 10.2377 14.252 10.3636 14.7525 10.3636ZM23.0426 11.1591C22.4162 11.1591 21.8677 10.9934 21.397 10.6619C20.9264 10.3305 20.5585 9.86813 20.2933 9.27486C20.0315 8.68158 19.9006 7.99053 19.9006 7.2017C19.9006 6.41619 20.0315 5.72846 20.2933 5.13849C20.5585 4.54522 20.928 4.08452 21.402 3.75639C21.8759 3.42495 22.4278 3.25923 23.0575 3.25923C23.5215 3.25923 23.9077 3.34209 24.2159 3.50781C24.5241 3.67022 24.7711 3.8724 24.9567 4.11435C25.1423 4.3563 25.2865 4.59162 25.3892 4.82031H25.4688V0.818182H26.3587V11H25.4936V9.5831H25.3892C25.2865 9.8151 25.1406 10.0537 24.9517 10.299C24.7628 10.541 24.5125 10.7448 24.201 10.9105C23.8928 11.0762 23.5066 11.1591 23.0426 11.1591ZM23.147 10.3487C23.6409 10.3487 24.0618 10.2145 24.4098 9.94602C24.7578 9.67424 25.023 9.30137 25.2053 8.82741C25.3909 8.35014 25.4837 7.80327 25.4837 7.18679C25.4837 6.57694 25.3925 6.03835 25.2102 5.57102C25.0279 5.10038 24.7628 4.73248 24.4148 4.46733C24.0668 4.19886 23.6442 4.06463 23.147 4.06463C22.6366 4.06463 22.2057 4.20384 21.8544 4.48224C21.5064 4.75734 21.2412 5.13021 21.0589 5.60085C20.88 6.0715 20.7905 6.60014 20.7905 7.18679C20.7905 7.78007 20.8816 8.31534 21.0639 8.79261C21.2462 9.26989 21.5114 9.64938 21.8594 9.93111C22.2107 10.2095 22.6399 10.3487 23.147 10.3487ZM31.9666 11.1591C31.254 11.1591 30.6375 10.9934 30.1172 10.6619C29.5968 10.3272 29.1941 9.86482 28.9091 9.27486C28.6274 8.68158 28.4865 7.99882 28.4865 7.22656C28.4865 6.45762 28.6274 5.77486 28.9091 5.17827C29.1941 4.57836 29.5869 4.10937 30.0874 3.77131C30.5911 3.42992 31.1728 3.25923 31.8324 3.25923C32.2467 3.25923 32.6461 3.33546 33.0305 3.48793C33.415 3.63707 33.7597 3.86742 34.0646 4.17898C34.3729 4.48722 34.6165 4.87666 34.7955 5.3473C34.9744 5.81463 35.0639 6.36813 35.0639 7.00781V7.44531H29.098V6.66477H34.1591C34.1591 6.17424 34.0597 5.73343 33.8608 5.34233C33.6652 4.94792 33.3918 4.63636 33.0405 4.40767C32.6925 4.17898 32.2898 4.06463 31.8324 4.06463C31.3485 4.06463 30.9226 4.19389 30.5547 4.45241C30.1868 4.71094 29.8984 5.05232 29.6896 5.47656C29.4841 5.9008 29.3797 6.36482 29.3764 6.86861V7.33594C29.3764 7.94247 29.4808 8.47277 29.6896 8.92685C29.9018 9.3776 30.2017 9.72727 30.5895 9.97585C30.9773 10.2244 31.4363 10.3487 31.9666 10.3487C32.3279 10.3487 32.6444 10.2924 32.9162 10.1797C33.1913 10.067 33.4216 9.91619 33.6072 9.72727C33.7962 9.53504 33.9387 9.32457 34.0348 9.09588L34.875 9.36932C34.759 9.69081 34.5684 9.98745 34.3033 10.2592C34.0414 10.531 33.7133 10.7498 33.3189 10.9155C32.9278 11.0779 32.477 11.1591 31.9666 11.1591ZM42.6468 11L40.34 3.36364H41.2747L43.0843 9.66264H43.149L44.9537 3.36364H45.8933L47.6831 9.64773H47.7527L49.5623 3.36364H50.497L48.1902 11H47.2754L45.4657 4.74077H45.3713L43.5616 11H42.6468ZM52.2271 11V3.36364H53.117V11H52.2271ZM52.6795 2.05114C52.4972 2.05114 52.3414 1.98982 52.2122 1.86719C52.0829 1.74124 52.0183 1.59044 52.0183 1.41477C52.0183 1.23911 52.0829 1.08996 52.2122 0.96733C52.3414 0.841382 52.4972 0.778408 52.6795 0.778408C52.8618 0.778408 53.0176 0.841382 53.1468 0.96733C53.2761 1.08996 53.3407 1.23911 53.3407 1.41477C53.3407 1.59044 53.2761 1.74124 53.1468 1.86719C53.0176 1.98982 52.8618 2.05114 52.6795 2.05114ZM58.4652 3.36364V4.13423H54.821V3.36364H58.4652ZM55.9595 1.53409H56.8494V9.00639C56.8494 9.32457 56.9041 9.57481 57.0135 9.7571C57.1229 9.93608 57.2654 10.0637 57.4411 10.1399C57.6167 10.2128 57.804 10.2493 58.0028 10.2493C58.1188 10.2493 58.2183 10.2427 58.3011 10.2294C58.384 10.2128 58.4569 10.1963 58.5199 10.1797L58.7088 10.9801C58.6226 11.0133 58.5166 11.0431 58.3906 11.0696C58.2647 11.0994 58.1089 11.1143 57.9233 11.1143C57.5985 11.1143 57.2853 11.0431 56.9837 10.9006C56.6854 10.758 56.4401 10.5459 56.2479 10.2642C56.0556 9.98248 55.9595 9.63281 55.9595 9.2152V1.53409ZM61.524 6.22727V11H60.639V0.818182H61.524V4.56179H61.6035C61.7825 4.16738 62.0592 3.85251 62.4338 3.61719C62.8116 3.38187 63.2889 3.2642 63.8656 3.2642C64.3826 3.2642 64.8367 3.37027 65.2278 3.58239C65.6189 3.79451 65.9238 4.10772 66.1426 4.52202C66.3613 4.93632 66.4707 5.44673 66.4707 6.05327V11H65.5808V6.10795C65.5808 5.47822 65.4051 4.98272 65.0538 4.62145C64.7058 4.25687 64.2351 4.07457 63.6419 4.07457C63.2342 4.07457 62.8713 4.16075 62.5531 4.3331C62.2349 4.50544 61.983 4.75402 61.7974 5.07884C61.6151 5.40033 61.524 5.78314 61.524 6.22727ZM91.1745 11V0.818182H92.0645V4.82031H92.144C92.2434 4.59162 92.3859 4.3563 92.5716 4.11435C92.7605 3.8724 93.0074 3.67022 93.3123 3.50781C93.6206 3.34209 94.0083 3.25923 94.4757 3.25923C95.1021 3.25923 95.6523 3.42495 96.1262 3.75639C96.6002 4.08452 96.9698 4.54522 97.2349 5.13849C97.5001 5.72846 97.6326 6.41619 97.6326 7.2017C97.6326 7.99053 97.5001 8.68158 97.2349 9.27486C96.9731 9.86813 96.6052 10.3305 96.1312 10.6619C95.6606 10.9934 95.1137 11.1591 94.4906 11.1591C94.0266 11.1591 93.6388 11.0762 93.3272 10.9105C93.019 10.7448 92.7704 10.541 92.5815 10.299C92.3926 10.0537 92.2467 9.8151 92.144 9.5831H92.0346V11H91.1745ZM92.0495 7.18679C92.0495 7.80327 92.1407 8.35014 92.323 8.82741C92.5086 9.30137 92.7737 9.67424 93.1184 9.94602C93.4664 10.2145 93.8874 10.3487 94.3812 10.3487C94.8883 10.3487 95.3175 10.2095 95.6689 9.93111C96.0202 9.64938 96.287 9.26989 96.4693 8.79261C96.6516 8.31534 96.7427 7.78007 96.7427 7.18679C96.7427 6.60014 96.6516 6.0715 96.4693 5.60085C96.2903 5.13021 96.0252 4.75734 95.6738 4.48224C95.3225 4.20384 94.8916 4.06463 94.3812 4.06463C93.8841 4.06463 93.4615 4.19886 93.1135 4.46733C92.7688 4.73248 92.5053 5.10038 92.323 5.57102C92.1407 6.03835 92.0495 6.57694 92.0495 7.18679ZM99.9196 13.8636C99.7439 13.8636 99.5798 13.8471 99.4274 13.8139C99.2749 13.7808 99.1539 13.7443 99.0645 13.7045L99.3031 12.924C99.6047 13.0168 99.8732 13.05 100.108 13.0234C100.344 13.0002 100.553 12.8942 100.735 12.7053C100.917 12.5196 101.08 12.2346 101.222 11.8501L101.501 11.0746L98.6916 3.36364H99.6511L101.918 9.83168H101.988L104.255 3.36364H105.214L101.983 12.2081C101.847 12.576 101.68 12.8826 101.481 13.1278C101.282 13.3764 101.051 13.5604 100.79 13.6797C100.531 13.8023 100.241 13.8636 99.9196 13.8636ZM116.596 3.36364C116.539 2.79687 116.289 2.34612 115.845 2.01136C115.401 1.67661 114.842 1.50923 114.169 1.50923C113.695 1.50923 113.278 1.59044 112.917 1.75284C112.559 1.91525 112.277 2.14062 112.071 2.42898C111.869 2.71402 111.768 3.03883 111.768 3.40341C111.768 3.67188 111.826 3.9072 111.942 4.10938C112.058 4.31155 112.214 4.48556 112.409 4.63139C112.608 4.77391 112.827 4.89654 113.066 4.99929C113.308 5.10204 113.551 5.18821 113.797 5.25781L114.87 5.56605C115.195 5.65554 115.52 5.76989 115.845 5.90909C116.17 6.0483 116.466 6.22396 116.735 6.43608C117.007 6.64489 117.224 6.90175 117.386 7.20668C117.552 7.50829 117.635 7.87121 117.635 8.29545C117.635 8.83902 117.494 9.32789 117.212 9.76207C116.93 10.1963 116.526 10.541 115.999 10.7962C115.472 11.0481 114.841 11.174 114.105 11.174C113.412 11.174 112.81 11.0597 112.3 10.831C111.79 10.599 111.389 10.2791 111.097 9.87145C110.805 9.46378 110.641 8.99148 110.605 8.45455H111.559C111.592 8.85559 111.725 9.19531 111.957 9.47372C112.189 9.75213 112.491 9.96425 112.862 10.1101C113.233 10.2526 113.647 10.3239 114.105 10.3239C114.612 10.3239 115.063 10.2393 115.457 10.0703C115.855 9.89796 116.166 9.65933 116.392 9.3544C116.62 9.04616 116.735 8.68821 116.735 8.28054C116.735 7.93584 116.645 7.64749 116.466 7.41548C116.287 7.18016 116.037 6.98295 115.716 6.82386C115.397 6.66477 115.028 6.52391 114.607 6.40128L113.389 6.04332C112.59 5.80469 111.97 5.4749 111.529 5.05398C111.089 4.63305 110.868 4.09612 110.868 3.44318C110.868 2.89631 111.014 2.41572 111.306 2.00142C111.601 1.58381 111.998 1.259 112.499 1.02699C113.003 0.791666 113.568 0.674005 114.194 0.674005C114.827 0.674005 115.387 0.790009 115.875 1.02202C116.362 1.25402 116.748 1.57386 117.033 1.98153C117.321 2.38589 117.475 2.84659 117.495 3.36364H116.596ZM122.855 11H119.872V0.818182H123.034C124.005 0.818182 124.835 1.02036 125.525 1.42472C126.217 1.82907 126.748 2.40909 127.115 3.16477C127.483 3.92045 127.667 4.82694 127.667 5.88423C127.667 6.95147 127.478 7.8679 127.1 8.63352C126.726 9.39583 126.179 9.98082 125.46 10.3885C124.744 10.7962 123.876 11 122.855 11ZM120.801 10.1648H122.8C123.675 10.1648 124.408 9.99242 124.998 9.64773C125.587 9.30303 126.03 8.81084 126.325 8.17116C126.62 7.53149 126.767 6.76918 126.767 5.88423C126.764 5.00592 126.618 4.25024 126.33 3.61719C126.045 2.98414 125.621 2.49858 125.057 2.16051C124.497 1.82244 123.804 1.65341 122.979 1.65341H120.801V10.1648ZM135.449 3.36364C135.393 2.79687 135.142 2.34612 134.698 2.01136C134.254 1.67661 133.696 1.50923 133.023 1.50923C132.549 1.50923 132.131 1.59044 131.77 1.75284C131.412 1.91525 131.13 2.14062 130.925 2.42898C130.723 2.71402 130.622 3.03883 130.622 3.40341C130.622 3.67188 130.68 3.9072 130.796 4.10938C130.912 4.31155 131.067 4.48556 131.263 4.63139C131.462 4.77391 131.681 4.89654 131.919 4.99929C132.161 5.10204 132.405 5.18821 132.65 5.25781L133.724 5.56605C134.049 5.65554 134.374 5.76989 134.698 5.90909C135.023 6.0483 135.32 6.22396 135.588 6.43608C135.86 6.64489 136.077 6.90175 136.24 7.20668C136.405 7.50829 136.488 7.87121 136.488 8.29545C136.488 8.83902 136.347 9.32789 136.066 9.76207C135.784 10.1963 135.379 10.541 134.852 10.7962C134.325 11.0481 133.694 11.174 132.958 11.174C132.266 11.174 131.664 11.0597 131.154 10.831C130.643 10.599 130.242 10.2791 129.95 9.87145C129.659 9.46378 129.495 8.99148 129.458 8.45455H130.413C130.446 8.85559 130.579 9.19531 130.811 9.47372C131.043 9.75213 131.344 9.96425 131.715 10.1101C132.087 10.2526 132.501 10.3239 132.958 10.3239C133.465 10.3239 133.916 10.2393 134.311 10.0703C134.708 9.89796 135.02 9.65933 135.245 9.3544C135.474 9.04616 135.588 8.68821 135.588 8.28054C135.588 7.93584 135.499 7.64749 135.32 7.41548C135.141 7.18016 134.891 6.98295 134.569 6.82386C134.251 6.66477 133.881 6.52391 133.46 6.40128L132.242 6.04332C131.444 5.80469 130.824 5.4749 130.383 5.05398C129.942 4.63305 129.722 4.09612 129.722 3.44318C129.722 2.89631 129.868 2.41572 130.159 2.00142C130.454 1.58381 130.852 1.259 131.352 1.02699C131.856 0.791666 132.421 0.674005 133.048 0.674005C133.681 0.674005 134.241 0.790009 134.728 1.02202C135.215 1.25402 135.602 1.57386 135.887 1.98153C136.175 2.38589 136.329 2.84659 136.349 3.36364H135.449ZM138.725 11V0.818182H139.655V10.1648H144.507V11H138.725ZM148.549 11.174C148.088 11.174 147.668 11.0845 147.286 10.9055C146.905 10.7232 146.602 10.4614 146.377 10.12C146.151 9.77533 146.039 9.35772 146.039 8.86719C146.039 8.48935 146.11 8.17116 146.252 7.91264C146.395 7.65412 146.597 7.442 146.859 7.27628C147.121 7.11056 147.431 6.97964 147.789 6.88352C148.146 6.78741 148.541 6.71283 148.972 6.6598C149.399 6.60677 149.761 6.56037 150.056 6.5206C150.354 6.48082 150.581 6.41785 150.737 6.33168C150.892 6.2455 150.97 6.1063 150.97 5.91406V5.73509C150.97 5.21473 150.815 4.8054 150.503 4.5071C150.195 4.20549 149.751 4.05469 149.171 4.05469C148.62 4.05469 148.171 4.17566 147.823 4.41761C147.479 4.65956 147.237 4.9446 147.097 5.27273L146.257 4.96946C146.43 4.55185 146.668 4.21875 146.973 3.97017C147.278 3.71828 147.619 3.53764 147.997 3.42827C148.375 3.31558 148.758 3.25923 149.146 3.25923C149.437 3.25923 149.741 3.29735 150.056 3.37358C150.374 3.44981 150.669 3.58239 150.941 3.77131C151.212 3.95691 151.433 4.21709 151.602 4.55185C151.771 4.88329 151.855 5.30421 151.855 5.81463V11H150.97V9.7919H150.916C150.81 10.0173 150.652 10.236 150.443 10.4482C150.235 10.6603 149.973 10.8343 149.658 10.9702C149.343 11.1061 148.973 11.174 148.549 11.174ZM148.669 10.3636C149.139 10.3636 149.547 10.2592 149.892 10.0504C150.236 9.84162 150.501 9.56487 150.687 9.22017C150.876 8.87216 150.97 8.48935 150.97 8.07173V6.96804C150.904 7.03101 150.793 7.08736 150.637 7.13707C150.485 7.18679 150.307 7.23153 150.105 7.27131C149.906 7.30776 149.708 7.33925 149.509 7.36577C149.31 7.39228 149.131 7.41548 148.972 7.43537C148.541 7.4884 148.173 7.57126 147.868 7.68395C147.563 7.79664 147.329 7.95241 147.167 8.15128C147.005 8.34683 146.923 8.59872 146.923 8.90696C146.923 9.37098 147.089 9.73059 147.421 9.9858C147.752 10.2377 148.168 10.3636 148.669 10.3636ZM154.393 11V0.818182H155.283V4.82031H155.363C155.462 4.59162 155.605 4.3563 155.79 4.11435C155.979 3.8724 156.226 3.67022 156.531 3.50781C156.839 3.34209 157.227 3.25923 157.694 3.25923C158.321 3.25923 158.871 3.42495 159.345 3.75639C159.819 4.08452 160.189 4.54522 160.454 5.13849C160.719 5.72846 160.851 6.41619 160.851 7.2017C160.851 7.99053 160.719 8.68158 160.454 9.27486C160.192 9.86813 159.824 10.3305 159.35 10.6619C158.879 10.9934 158.332 11.1591 157.709 11.1591C157.245 11.1591 156.858 11.0762 156.546 10.9105C156.238 10.7448 155.989 10.541 155.8 10.299C155.611 10.0537 155.465 9.8151 155.363 9.5831H155.253V11H154.393ZM155.268 7.18679C155.268 7.80327 155.359 8.35014 155.542 8.82741C155.727 9.30137 155.992 9.67424 156.337 9.94602C156.685 10.2145 157.106 10.3487 157.6 10.3487C158.107 10.3487 158.536 10.2095 158.888 9.93111C159.239 9.64938 159.506 9.26989 159.688 8.79261C159.87 8.31534 159.961 7.78007 159.961 7.18679C159.961 6.60014 159.87 6.0715 159.688 5.60085C159.509 5.13021 159.244 4.75734 158.893 4.48224C158.541 4.20384 158.11 4.06463 157.6 4.06463C157.103 4.06463 156.68 4.19886 156.332 4.46733C155.988 4.73248 155.724 5.10038 155.542 5.57102C155.359 6.03835 155.268 6.57694 155.268 7.18679ZM167.926 5.03906L167.116 5.26776C167.036 5.03906 166.923 4.83191 166.778 4.64631C166.632 4.4607 166.441 4.31321 166.206 4.20384C165.974 4.09446 165.685 4.03977 165.341 4.03977C164.824 4.03977 164.399 4.16241 164.068 4.40767C163.737 4.65294 163.571 4.96946 163.571 5.35724C163.571 5.68537 163.684 5.95218 163.909 6.15767C164.138 6.35985 164.489 6.5206 164.963 6.63991L166.116 6.9233C166.756 7.07907 167.235 7.32599 167.553 7.66406C167.875 8.00213 168.035 8.42637 168.035 8.93679C168.035 9.36766 167.916 9.75047 167.677 10.0852C167.439 10.42 167.106 10.6835 166.678 10.8757C166.254 11.0646 165.762 11.1591 165.202 11.1591C164.456 11.1591 163.841 10.9917 163.357 10.657C162.873 10.3189 162.563 9.83168 162.427 9.19531L163.278 8.98651C163.387 9.44058 163.601 9.78362 163.919 10.0156C164.24 10.2476 164.663 10.3636 165.187 10.3636C165.773 10.3636 166.242 10.2327 166.594 9.97088C166.945 9.70573 167.121 9.37429 167.121 8.97656C167.121 8.66832 167.018 8.4098 166.812 8.20099C166.607 7.98887 166.295 7.8331 165.878 7.73366L164.63 7.43537C163.967 7.27628 163.476 7.02438 163.158 6.67969C162.84 6.33499 162.681 5.90743 162.681 5.39702C162.681 4.97609 162.795 4.60653 163.024 4.28835C163.253 3.96686 163.568 3.71496 163.969 3.53267C164.37 3.35038 164.827 3.25923 165.341 3.25923C166.04 3.25923 166.599 3.41832 167.016 3.73651C167.437 4.05137 167.74 4.48556 167.926 5.03906Z" fill="#646675"/>
<path d="M78.7294 11.1591L73.6186 6.0483C73.2109 5.64062 72.9392 5.16667 72.8033 4.62642C72.6707 4.08617 72.6723 3.54924 72.8082 3.01562C72.9441 2.47869 73.2143 2.01136 73.6186 1.61364C74.0329 1.20597 74.5052 0.935842 75.0355 0.803267C75.5691 0.667377 76.1011 0.667377 76.6314 0.803267C77.165 0.939157 77.639 1.20928 78.0533 1.61364L78.7294 2.26989L79.4055 1.61364C79.8232 1.20928 80.2971 0.939157 80.8274 0.803267C81.3577 0.667377 81.888 0.667377 82.4183 0.803267C82.9519 0.935842 83.4259 1.20597 83.8402 1.61364C84.2446 2.01136 84.5147 2.47869 84.6506 3.01562C84.7865 3.54924 84.7865 4.08617 84.6506 4.62642C84.518 5.16667 84.2479 5.64062 83.8402 6.0483L78.7294 11.1591Z" fill="#FF426F"/>
</svg>
