<svg width="24" height="24" viewBox="0 0 24 24" fill="none" xmlns="http://www.w3.org/2000/svg">
<path d="M24 15V22C24 22.5304 23.7893 23.0391 23.4142 23.4142C23.0391 23.7893 22.5304 24 22 24H2C1.46957 24 0.960859 23.7893 0.585786 23.4142C0.210714 23.0391 0 22.5304 0 22V15C0 14.7348 0.105357 14.4804 0.292893 14.2929C0.48043 14.1054 0.734784 14 1 14C1.26522 14 1.51957 14.1054 1.70711 14.2929C1.89464 14.4804 2 14.7348 2 15V22H22V15C22 14.7348 22.1054 14.4804 22.2929 14.2929C22.4804 14.1054 22.7348 14 23 14C23.2652 14 23.5196 14.1054 23.7071 14.2929C23.8946 14.4804 24 14.7348 24 15ZM7.7075 6.7075L11 3.41375V15C11 15.2652 11.1054 15.5196 11.2929 15.7071C11.4804 15.8946 11.7348 16 12 16C12.2652 16 12.5196 15.8946 12.7071 15.7071C12.8946 15.5196 13 15.2652 13 15V3.41375L16.2925 6.7075C16.4801 6.89514 16.7346 7.00056 17 7.00056C17.2654 7.00056 17.5199 6.89514 17.7075 6.7075C17.8951 6.51986 18.0006 6.26537 18.0006 6C18.0006 5.73464 17.8951 5.48014 17.7075 5.2925L12.7075 0.292501C12.6146 0.199524 12.5043 0.125765 12.3829 0.0754411C12.2615 0.0251168 12.1314 -0.000785828 12 -0.000785828C11.8686 -0.000785828 11.7385 0.0251168 11.6171 0.0754411C11.4957 0.125765 11.3854 0.199524 11.2925 0.292501L6.2925 5.2925C6.10486 5.48014 5.99944 5.73464 5.99944 6C5.99944 6.26537 6.10486 6.51986 6.2925 6.7075C6.48014 6.89514 6.73464 7.00056 7 7.00056C7.26536 7.00056 7.51986 6.89514 7.7075 6.7075Z" fill="#263054"/>
</svg>
