<svg width="10" height="14" viewBox="0 0 10 14" fill="none" xmlns="http://www.w3.org/2000/svg">
<path d="M9.85375 10.3538L6.85375 13.3538C6.80731 13.4002 6.75217 13.4371 6.69147 13.4623C6.63077 13.4874 6.56571 13.5004 6.5 13.5004C6.43429 13.5004 6.36923 13.4874 6.30853 13.4623C6.24783 13.4371 6.19269 13.4002 6.14625 13.3538L3.14625 10.3538C3.05243 10.2599 2.99972 10.1327 2.99972 10C2.99972 9.86732 3.05243 9.74007 3.14625 9.64625C3.24007 9.55243 3.36732 9.49972 3.5 9.49972C3.63268 9.49972 3.75993 9.55243 3.85375 9.64625L6 11.7931V7C5.99835 5.54182 5.41835 4.14383 4.38726 3.11274C3.35617 2.08165 1.95818 1.50165 0.5 1.5C0.367392 1.5 0.240215 1.44732 0.146447 1.35355C0.0526785 1.25979 0 1.13261 0 1C0 0.867392 0.0526785 0.740215 0.146447 0.646447C0.240215 0.552678 0.367392 0.5 0.5 0.5C2.22335 0.50182 3.87559 1.18722 5.09418 2.40582C6.31278 3.62441 6.99818 5.27665 7 7V11.7931L9.14625 9.64625C9.24007 9.55243 9.36732 9.49972 9.5 9.49972C9.63268 9.49972 9.75993 9.55243 9.85375 9.64625C9.94757 9.74007 10.0003 9.86732 10.0003 10C10.0003 10.1327 9.94757 10.2599 9.85375 10.3538Z" fill="#263054"/>
</svg>
