<svg width="20" height="20" viewBox="0 0 20 20" fill="none" xmlns="http://www.w3.org/2000/svg">
<path d="M10.3 1.28H2.11C1.75654 1.28 1.47 0.993462 1.47 0.64C1.47 0.286538 1.75654 0 2.11 0H10.3C10.9223 -5.6828e-06 11.5191 0.247902 11.9582 0.688902C12.3973 1.1299 12.6427 1.72766 12.64 2.35C12.6719 2.91187 13.1372 3.3509 13.7 3.35H18.64C18.8896 3.31886 19.1348 3.43454 19.2695 3.647C19.4041 3.85945 19.4041 4.13055 19.2695 4.343C19.1348 4.55546 18.8896 4.67114 18.64 4.64H13.7C12.4231 4.64019 11.3818 3.6167 11.36 2.34C11.3546 1.75684 10.8832 1.28543 10.3 1.28Z" fill="#646675"/>
<path fill-rule="evenodd" clip-rule="evenodd" d="M15.73 5.74995H11.73C11.5036 5.74995 11.32 5.56639 11.32 5.33995C11.32 3.6831 9.97685 2.33995 8.32 2.33995H4.32C3.17611 2.33463 2.07724 2.78532 1.2665 3.5923C0.455766 4.39929 -1.23728e-05 5.49605 2.5193e-10 6.63995V15.64C0.00549833 18.007 1.92298 19.9245 4.29 19.93H15.73C18.0892 19.9135 19.9946 17.9992 20 15.64V10.03C19.9945 7.67234 18.0876 5.76094 15.73 5.74995ZM18.73 15.64C18.73 17.2968 17.3869 18.64 15.73 18.64H4.27C2.61315 18.64 1.27 17.2968 1.27 15.64V6.63995C1.27 4.9831 2.61315 3.63995 4.27 3.63995H8.27C8.72604 3.63191 9.16619 3.80745 9.49152 4.12714C9.81685 4.44683 10.0001 4.88384 10 5.33995C10.0055 6.27493 10.765 7.02997 11.7 7.02995H15.7C17.3569 7.02995 18.7 8.3731 18.7 10.03L18.73 15.64Z" fill="#646675"/>
</svg>
