<svg width="28" height="34" viewBox="0 0 28 34" fill="none" xmlns="http://www.w3.org/2000/svg">
<path d="M27.3844 9.86563L18.6344 1.11563C18.5182 0.999582 18.3803 0.907565 18.2286 0.84483C18.0768 0.782095 17.9142 0.749871 17.75 0.75H2.75C2.08696 0.75 1.45107 1.01339 0.982233 1.48223C0.513392 1.95107 0.25 2.58696 0.25 3.25V30.75C0.25 31.413 0.513392 32.0489 0.982233 32.5178C1.45107 32.9866 2.08696 33.25 2.75 33.25H25.25C25.913 33.25 26.5489 32.9866 27.0178 32.5178C27.4866 32.0489 27.75 31.413 27.75 30.75V10.75C27.7501 10.5858 27.7179 10.4232 27.6552 10.2714C27.5924 10.1197 27.5004 9.9818 27.3844 9.86563ZM19 5.01719L23.4828 9.5H19V5.01719ZM25.25 30.75H2.75V3.25H16.5V10.75C16.5 11.0815 16.6317 11.3995 16.8661 11.6339C17.1005 11.8683 17.4185 12 17.75 12H25.25V30.75ZM18.1344 23.1172C18.8721 21.9449 19.152 20.542 18.9207 19.1764C18.6895 17.8108 17.9631 16.5783 16.8806 15.7143C15.798 14.8504 14.4351 14.4156 13.0522 14.493C11.6693 14.5704 10.3634 15.1546 9.38403 16.134C8.40465 17.1134 7.82044 18.4193 7.74302 19.8022C7.6656 21.1851 8.1004 22.548 8.96434 23.6306C9.82828 24.7131 11.0608 25.4395 12.4264 25.6707C13.792 25.902 15.1949 25.6221 16.3672 24.8844L18.1156 26.6344C18.2318 26.7505 18.3696 26.8426 18.5214 26.9055C18.6731 26.9683 18.8358 27.0007 19 27.0007C19.1642 27.0007 19.3269 26.9683 19.4786 26.9055C19.6304 26.8426 19.7682 26.7505 19.8844 26.6344C20.0005 26.5182 20.0926 26.3804 20.1555 26.2286C20.2183 26.0769 20.2507 25.9142 20.2507 25.75C20.2507 25.5858 20.2183 25.4231 20.1555 25.2714C20.0926 25.1196 20.0005 24.9818 19.8844 24.8656L18.1344 23.1172ZM10.25 20.125C10.25 19.5069 10.4333 18.9027 10.7767 18.3888C11.12 17.8749 11.6081 17.4744 12.1791 17.2379C12.7501 17.0014 13.3785 16.9395 13.9847 17.06C14.5908 17.1806 15.1477 17.4783 15.5847 17.9153C16.0217 18.3523 16.3194 18.9092 16.44 19.5153C16.5605 20.1215 16.4986 20.7499 16.2621 21.3209C16.0256 21.8919 15.6251 22.38 15.1112 22.7233C14.5973 23.0667 13.9931 23.25 13.375 23.25C12.5462 23.25 11.7513 22.9208 11.1653 22.3347C10.5792 21.7487 10.25 20.9538 10.25 20.125Z" fill="#CF4141"/>
</svg>
