<svg width="10" height="14" viewBox="0 0 10 14" fill="none" xmlns="http://www.w3.org/2000/svg">
<path d="M8.5 0.5H1.5C1.23478 0.5 0.98043 0.605357 0.792893 0.792893C0.605357 0.98043 0.5 1.23478 0.5 1.5V3.75C0.500338 3.90519 0.536631 4.05818 0.606032 4.19698C0.675434 4.33579 0.776055 4.45662 0.9 4.55L4.16687 7L0.9 9.45C0.776055 9.54338 0.675434 9.66421 0.606032 9.80302C0.536631 9.94182 0.500338 10.0948 0.5 10.25V12.5C0.5 12.7652 0.605357 13.0196 0.792893 13.2071C0.98043 13.3946 1.23478 13.5 1.5 13.5H8.5C8.76522 13.5 9.01957 13.3946 9.20711 13.2071C9.39464 13.0196 9.5 12.7652 9.5 12.5V10.2725C9.49964 10.1179 9.46365 9.96548 9.39482 9.82706C9.32599 9.68864 9.22617 9.56795 9.10312 9.47437L5.82938 7L9.10312 4.525C9.22623 4.43162 9.3261 4.31105 9.39494 4.17272C9.46378 4.03439 9.49974 3.88202 9.5 3.7275V1.5C9.5 1.23478 9.39464 0.98043 9.20711 0.792893C9.01957 0.605357 8.76522 0.5 8.5 0.5ZM8.5 1.5V2.5H1.5V1.5H8.5ZM8.5 12.5H1.5V10.25L5 7.625L8.5 10.2719V12.5ZM5 6.375L1.5 3.75V3.5H8.5V3.7275L5 6.375Z" fill="#263054"/>
</svg>
