<svg width="17" height="17" viewBox="0 0 17 17" fill="none" xmlns="http://www.w3.org/2000/svg">
<path d="M16.3844 5.35703L11.643 0.616401C11.5269 0.500297 11.3891 0.408197 11.2374 0.345361C11.0858 0.282525 10.9232 0.250183 10.759 0.250183C10.5949 0.250183 10.4323 0.282525 10.2806 0.345361C10.1289 0.408197 9.99112 0.500297 9.87504 0.616401L5.6852 4.81953C4.85239 4.55859 2.95083 4.24374 0.966451 5.84609C0.829674 5.95607 0.717591 6.09363 0.637498 6.2498C0.557405 6.40597 0.511098 6.57726 0.501591 6.75251C0.492084 6.92776 0.51959 7.10306 0.582319 7.26698C0.645047 7.4309 0.741593 7.57977 0.86567 7.7039L4.64067 11.4773L1.30786 14.8078C1.19058 14.9251 1.1247 15.0841 1.1247 15.25C1.1247 15.4158 1.19058 15.5749 1.30786 15.6922C1.42513 15.8095 1.58419 15.8753 1.75004 15.8753C1.9159 15.8753 2.07496 15.8095 2.19223 15.6922L5.5227 12.3594L9.29536 16.132C9.41134 16.2485 9.54915 16.3409 9.7009 16.4041C9.85265 16.4672 10.0154 16.4998 10.1797 16.5C10.2094 16.5 10.2383 16.5 10.268 16.5C10.4462 16.4876 10.6196 16.4371 10.7766 16.3518C10.9335 16.2664 11.0702 16.1483 11.1774 16.0055C12.7118 13.9664 12.5641 12.3086 12.2079 11.318L16.3852 7.12499C16.5013 7.00887 16.5933 6.87101 16.6561 6.71931C16.7188 6.56761 16.7511 6.40503 16.751 6.24085C16.751 6.07667 16.7185 5.91412 16.6556 5.76247C16.5927 5.61082 16.5006 5.47305 16.3844 5.35703ZM15.5 6.2414L11.0258 10.7305C10.9334 10.8232 10.8725 10.9426 10.8516 11.0719C10.8307 11.2011 10.8509 11.3336 10.9094 11.4508C11.6485 12.9297 10.7688 14.4656 10.1797 15.2492L1.75004 6.81875C2.69379 6.05781 3.59692 5.85703 4.28754 5.85703C4.72577 5.85104 5.16038 5.93701 5.56333 6.10937C5.68088 6.1682 5.814 6.18847 5.94374 6.16729C6.07348 6.14611 6.19324 6.08456 6.28598 5.9914L10.7594 1.49999L15.5 6.24062V6.2414Z" fill="white"/>
</svg>
