<svg width="16" height="21" viewBox="0 0 16 21" fill="none" xmlns="http://www.w3.org/2000/svg">
<path fill-rule="evenodd" clip-rule="evenodd" d="M15.58 15.21L15.82 16.35C16.0474 17.3356 15.8228 18.3713 15.2076 19.1742C14.5924 19.9771 13.6508 20.4633 12.64 20.5H3.35997C2.34915 20.4633 1.40754 19.9771 0.792319 19.1742C0.177098 18.3713 -0.0474614 17.3356 0.179972 16.35L0.419972 15.21C0.696007 13.6668 2.02259 12.5327 3.58997 12.5H12.41C13.9774 12.5327 15.3039 13.6668 15.58 15.21ZM12.64 18.99C13.1478 18.9841 13.6256 18.7489 13.94 18.35V18.36C14.3257 17.8762 14.4759 17.2458 14.35 16.64L14.11 15.5C13.9768 14.6552 13.2646 14.0226 12.41 13.99H3.58998C2.73534 14.0226 2.02314 14.6552 1.88998 15.5L1.64998 16.64C1.52713 17.2426 1.67724 17.8687 2.05998 18.35C2.37431 18.7489 2.85219 18.9841 3.35998 18.99H12.64Z" fill="#646675"/>
<path fill-rule="evenodd" clip-rule="evenodd" d="M8.49996 10.5H7.49996C5.29082 10.5 3.49996 8.70915 3.49996 6.50001V3.86001C3.49729 2.96807 3.85043 2.11189 4.48113 1.48119C5.11184 0.850491 5.96802 0.497348 6.85996 0.500015H9.13996C10.0319 0.497348 10.8881 0.850491 11.5188 1.48119C12.1495 2.11189 12.5026 2.96807 12.5 3.86001V6.50001C12.5 8.70915 10.7091 10.5 8.49996 10.5ZM6.85996 2.00002C5.83271 2.00002 4.99996 2.83277 4.99996 3.86001V6.50001C4.99996 7.88073 6.11925 9.00001 7.49996 9.00001H8.49996C9.88067 9.00001 11 7.88073 11 6.50001V3.86001C11 3.36671 10.804 2.89361 10.4552 2.5448C10.1064 2.19598 9.63326 2.00002 9.13996 2.00002H6.85996Z" fill="#646675"/>
</svg>
