<svg width="16" height="21" viewBox="0 0 16 21" fill="none" xmlns="http://www.w3.org/2000/svg">
<path d="M12.64 20.5H3.36C2.34918 20.4633 1.40757 19.977 0.79235 19.1742C0.177128 18.3713 -0.0474309 17.3356 0.180003 16.35L0.420003 15.21C0.696038 13.6668 2.02262 12.5327 3.59 12.5H12.41C13.9774 12.5327 15.304 13.6668 15.58 15.21L15.82 16.35C16.0474 17.3356 15.8229 18.3713 15.2077 19.1742C14.5924 19.977 13.6508 20.4633 12.64 20.5Z" fill="black"/>
<path d="M8.5 10.5H7.5C5.29086 10.5 3.5 8.70915 3.5 6.50001V3.86001C3.49734 2.96807 3.85048 2.11189 4.48118 1.48119C5.11188 0.850491 5.96806 0.497348 6.86 0.500015H9.14C10.0319 0.497348 10.8881 0.850491 11.5188 1.48119C12.1495 2.11189 12.5027 2.96807 12.5 3.86001V6.50001C12.5 7.56088 12.0786 8.5783 11.3284 9.32844C10.5783 10.0786 9.56087 10.5 8.5 10.5Z" fill="black"/>
</svg>
