<svg width="18" height="18" viewBox="0 0 18 18" fill="none" xmlns="http://www.w3.org/2000/svg">
<path d="M16.9415 16.058L13.0298 12.1471C14.1636 10.7859 14.7289 9.04002 14.6083 7.27263C14.4876 5.50524 13.6902 3.85241 12.3819 2.65797C11.0737 1.46353 9.3553 0.819439 7.58425 0.859689C5.81321 0.899939 4.12586 1.62143 2.87322 2.87407C1.62057 4.12671 0.899084 5.81406 0.858835 7.58511C0.818585 9.35615 1.46267 11.0745 2.65711 12.3828C3.85156 13.691 5.50438 14.4884 7.27177 14.6091C9.03916 14.7298 10.785 14.1644 12.1462 13.0306L16.0571 16.9424C16.1152 17.0004 16.1841 17.0465 16.26 17.0779C16.3359 17.1094 16.4172 17.1255 16.4993 17.1255C16.5814 17.1255 16.6628 17.1094 16.7386 17.0779C16.8145 17.0465 16.8834 17.0004 16.9415 16.9424C16.9996 16.8843 17.0456 16.8154 17.0771 16.7395C17.1085 16.6636 17.1247 16.5823 17.1247 16.5002C17.1247 16.4181 17.1085 16.3367 17.0771 16.2609C17.0456 16.185 16.9996 16.1161 16.9415 16.058ZM2.12432 7.75018C2.12432 6.63766 2.45422 5.55012 3.07231 4.6251C3.69039 3.70007 4.5689 2.9791 5.59673 2.55336C6.62456 2.12761 7.75556 2.01622 8.84671 2.23326C9.93785 2.4503 10.9401 2.98603 11.7268 3.7727C12.5135 4.55937 13.0492 5.56165 13.2662 6.6528C13.4833 7.74394 13.3719 8.87494 12.9461 9.90277C12.5204 10.9306 11.7994 11.8091 10.8744 12.4272C9.94938 13.0453 8.86184 13.3752 7.74932 13.3752C6.25799 13.3735 4.82821 12.7804 3.77368 11.7258C2.71914 10.6713 2.12598 9.24151 2.12432 7.75018Z" fill="#646675"/>
</svg>
